<?xml version="1.0" standalone="no"?>
<!DOCTYPE svg PUBLIC "-//W3C//DTD SVG 1.1//EN" "http://www.w3.org/Graphics/SVG/1.1/DTD/svg11.dtd" >
<svg xmlns="http://www.w3.org/2000/svg" xmlns:xlink="http://www.w3.org/1999/xlink" version="1.1">
<metadata></metadata>
<defs>
<font id="sf_cartoonist_handregular" horiz-adv-x="831" >
<font-face units-per-em="2048" ascent="1638" descent="-410" />
<missing-glyph horiz-adv-x="418" />
<glyph horiz-adv-x="0" />
<glyph unicode="&#xd;" horiz-adv-x="1024" />
<glyph unicode=" "  horiz-adv-x="418" />
<glyph unicode="&#x09;" horiz-adv-x="418" />
<glyph unicode="&#xa0;" horiz-adv-x="418" />
<glyph unicode="!" horiz-adv-x="391" d="M97 99q0 29 32.5 62.5t59.5 33.5q24 0 44 -35t20 -63q-2 -29 -26 -58t-53 -29q-27 0 -52 31t-25 58zM116 889v268q5 51 17 152q14 56 62 56q56 0 56 -56v-974q-70 -31 -99 -31q-24 0 -29 31q-4 18 -4 129q0 34 -1.5 105t-1.5 320z" />
<glyph unicode="&#x22;" horiz-adv-x="597" d="M131 1312q48 53 79 53q15 0 23.5 -22t38.5 -121t30 -108q0 -47 -53 -47q-36 0 -53 36q-39 78 -65 209zM300 1304q0 22 26 37.5t55 15.5q20 0 23 -51q0 -33 20.5 -92t20.5 -89q0 -50 -54 -50q-34 0 -50 38q-41 106 -41 191z" />
<glyph unicode="#" horiz-adv-x="1094" d="M80 817q0 24 29 30q39 8 101 8h101q5 50 18 150q-107 0 -186 12q-13 33 -13 67q0 25 15 32q5 2 38 2q56 0 165 7q10 68 33 206q37 16 71 16q33 0 33 -31q0 -4 -19 -181q32 3 154 19q6 92 6 179q45 32 79 32q41 0 41 -85q0 -29 -2 -113q82 9 196 9q98 0 98 -62 q0 -51 -58 -58q-81 -3 -243 -13q-7 -89 -18 -164q186 14 168 14q53 0 53 -62q0 -41 -40 -53t-202 -24q-7 -49 -29 -146q-15 -45 -60 -45q-59 0 -59 65q0 24 15 120q-48 -2 -143 -2q-4 -57 -19 -162q-12 -60 -60 -60q-60 0 -60 60q0 29 14 157h-188q-29 44 -29 76zM435 860 q50 4 150 10q7 41 21 159q-51 -7 -154 -17z" />
<glyph unicode="$" horiz-adv-x="887" d="M77 355q0 24 19.5 42t45.5 18q25 0 53 -29q66 -74 83 -89q48 -46 97 -73v447q-261 138 -261 312q0 99 84 172q72 65 177 89q-3 84 -3 68q0 53 53 53q58 0 58 -109q97 -3 161 -59.5t64 -153.5q-39 -36 -73 -36q-17 0 -29 31q-17 44 -33 59q-30 33 -90 36q0 4 0 -374 q307 -153 307 -389q0 -128 -70 -218q-75 -99 -199 -99q-18 0 -43 5v-27q-46 -31 -79 -31q-29 0 -29 49q0 14 2 35q-82 32 -162 97q-87 70 -123 142q-10 20 -10 32zM241 980q0 -79 136 -163v166v67q-2 53 -2 68q-134 -34 -134 -138zM483 184q7 -1 34 -1q70 0 109 63 q33 54 33 128q0 145 -176 240v-430z" />
<glyph unicode="%" horiz-adv-x="1114" d="M72 1067q0 117 82 207.5t198 90.5q122 0 205 -78.5t83 -201.5q0 -119 -81 -196.5t-201 -77.5q-116 0 -201 70.5t-85 185.5zM196 1072q0 -135 168 -135q63 0 104.5 41t41.5 104q0 67 -53.5 114.5t-121.5 47.5q-52 0 -95.5 -59.5t-43.5 -112.5zM217 445q0 28 293.5 294 t332.5 266q24 0 43 -19.5t19 -43.5q0 -19 -16.5 -37t-103.5 -86q-94 -73 -244 -211q-174 -161 -239 -215q-85 17 -85 52zM469 266q0 123 78 212t201 89q119 0 204.5 -85.5t85.5 -205.5q0 -119 -87 -197.5t-209 -78.5q-124 0 -198.5 71.5t-74.5 194.5zM589 268 q0 -143 157 -143q70 0 117 41.5t47 109.5q0 76 -48 123.5t-123 47.5q-65 0 -107.5 -56t-42.5 -123z" />
<glyph unicode="&#x26;" horiz-adv-x="981" d="M162 1075q0 120 65 202q72 88 188 88q99 0 165 -75q62 -73 62 -174q0 -155 -186 -450q99 -135 251 -273q8 92 15 117q19 79 65 79q63 0 63 -75q0 -72 -33 -219q30 -24 105 -80v-12q0 -85 -36 -85q-22 0 -108 66q-49 -88 -150 -138q-92 -46 -200 -46q-123 0 -190 77.5 t-67 202.5q0 150 138 384q-147 215 -147 411zM287 1068q0 -129 92 -286q136 223 136 327q0 40 -32 87.5t-68 47.5q-62 0 -98 -60q-30 -49 -30 -116zM297 275q0 -152 140 -152q70 0 141 41t100 102q-163 138 -289 292q-92 -165 -92 -283z" />
<glyph unicode="'" horiz-adv-x="369" d="M89 1328q48 37 77 37q17 0 25 -22q72 -181 72 -210q0 -51 -63 -51q-26 0 -41 26q-57 97 -70 220z" />
<glyph unicode="(" horiz-adv-x="575" d="M80 633q0 193 70 391q82 230 215 326q22 15 41 15q26 0 45.5 -18t19.5 -41q0 -19 -44 -74q-29 -36 -60 -71q-169 -231 -169 -535q0 -343 222 -537q-10 -89 -46 -89q-9 0 -17 7q-139 106 -210 280q-67 158 -67 346z" />
<glyph unicode=")" horiz-adv-x="575" d="M101 60q0 17 18 41q29 32 84 100q167 231 167 547q0 334 -220 529q10 88 46 88q7 0 16 -6q280 -219 280 -620q0 -193 -72 -394q-80 -231 -215 -330q-21 -15 -41 -15q-24 0 -43.5 18t-19.5 42z" />
<glyph unicode="*" horiz-adv-x="787" d="M82 1135q20 106 68 106q16 0 162 -132v99q0 81 4 99q12 58 61 58q58 0 58 -85v-212q58 53 169 161q21 20 36 20q24 0 42 -20.5t18 -44.5q0 -58 -214 -225q58 -43 171 -135q27 -25 27 -54q0 -63 -58 -63q-39 0 -203 131v-181q-46 -29 -78 -29q-22 0 -29 29q-11 46 -11 171 q-42 -31 -128 -94q-87 20 -87 53q0 15 195 165q-67 62 -203 183z" />
<glyph unicode="+" horiz-adv-x="674" d="M32 672q0 79 183 79q26 0 58 -2v227q0 60 58 60q53 0 63 -60q7 -39 7 -237h188q53 0 53 -61q0 -67 -147 -67q-62 0 -94 2v-224q0 -58 -56 -58q-51 0 -63 58q-9 44 -9 232q-53 4 -63 4q-19 0 -58 -6t-58 -6q-24 0 -43 18t-19 41z" />
<glyph unicode="," horiz-adv-x="560" d="M169 -51q0 2 32.5 60t35.5 68q10 25 22 52.5t30 40.5t30 13q67 0 67 -65q0 -43 -47 -121.5t-85 -104.5q-85 24 -85 57z" />
<glyph unicode="-" d="M150 666q0 34 37.5 46.5t215.5 12.5q32 0 94.5 6t94.5 6q63 0 63 -61q0 -72 -184 -72q-44 0 -133 3.5t-133 3.5q-55 0 -55 55z" />
<glyph unicode="." horiz-adv-x="471" d="M128 73q0 40 36 79t75 39q36 0 59 -33t23 -71q0 -36 -26.5 -60.5t-62.5 -24.5q-104 0 -104 71z" />
<glyph unicode="/" horiz-adv-x="577" d="M27 56q0 16 45 157q54 164 254 802q20 79 39 159q26 101 57 149q27 42 64 42q64 0 64 -59q0 -43 -41 -168q-29 -85 -287 -901q-17 -68 -70 -194q-24 -43 -62 -43q-63 0 -63 56z" />
<glyph unicode="0" horiz-adv-x="1169" d="M147 635q0 256 71 454q99 276 308 276q249 0 389 -225q119 -193 119 -457q0 -251 -109 -447q-133 -236 -365 -236q-222 0 -330 218q-83 169 -83 417zM270 652q0 -131 80 -311q92 -211 203 -211q171 0 270 205q78 163 78 354q0 212 -87 366q-106 187 -300 187 q-110 0 -185 -247q-59 -195 -59 -343z" />
<glyph unicode="1" horiz-adv-x="521" d="M19 1213q0 24 30 50.5t88 60.5q68 41 99 41q56 0 71 -58q10 -41 10 -169q0 -35 9 -278.5t9 -495.5q0 -204 -12 -333q-47 -31 -79 -31q-22 0 -27 29t-5 80q0 19 1.5 58.5t1.5 57.5v988q-106 -61 -138 -61q-58 0 -58 61z" />
<glyph unicode="2" horiz-adv-x="1002" d="M150 1050q0 150 106 235q99 80 253 80q160 0 266 -88q111 -94 111 -253q0 -150 -137 -340q-48 -66 -244 -288q-95 -108 -107 -121q-58 -72 -87 -137h517q63 -1 63 -65q0 -73 -597 -73q-113 0 -113 67q0 66 60 174q47 85 136 189l154 178q109 128 150 191q78 124 78 223 q0 104 -78 161q-68 49 -176 49q-227 0 -227 -203q0 -10 3.5 -32t3.5 -33q0 -27 -19.5 -46.5t-47.5 -19.5q-68 0 -68 152z" />
<glyph unicode="3" horiz-adv-x="1043" d="M109 213q0 26 21.5 45.5t46.5 19.5q18 0 122 -70.5t194 -70.5q188 0 261 174q24 56 24 104q0 164 -215 257q-27 11 -79 34t-52 64q0 30 32 58q79 59 159 119q96 82 96 161q0 53 -77 93q-67 38 -125 38q-73 0 -148 -49q-67 -45 -111 -113h-12q-86 0 -86 37q0 9 6 19 q47 103 145.5 167.5t209.5 64.5q121 0 220 -70q109 -76 109 -194q0 -150 -208 -313q119 -56 193 -150q80 -106 80 -228q0 -166 -126.5 -288t-291.5 -122q-94 0 -202.5 49.5t-166.5 121.5q-19 24 -19 42z" />
<glyph unicode="4" horiz-adv-x="1080" d="M90 604q0 39 7 137q12 169 12 379q0 25 -3.5 78t-3.5 79q0 88 43 88q36 0 60 -37.5t24 -279.5q0 -188 -5 -271q-9 -140 -9 -157q0 -47 9 -93q111 11 472 33q4 124 4 177t-25.5 264.5t-25.5 321.5q0 41 49 41q36 0 53 -36q72 -156 72 -763q111 5 109 5q60 0 60 -58 q0 -51 -65 -68q-22 -7 -106 -11v-148q2 -97 2 -147q0 -138 -74 -138q-65 0 -65 113v157q11 124 11 157q-181 -9 -398 -26q-87 -7 -121 -7q-86 0 -86 210z" />
<glyph unicode="5" horiz-adv-x="1060" d="M123 249q0 26 18.5 45.5t44.5 19.5q27 0 75 -46q67 -67 99 -89q70 -46 155 -46q128 0 219.5 97.5t91.5 225.5q0 136 -107 222q-101 80 -241 80q-82 0 -132.5 -55.5t-72.5 -55.5q-27 0 -46.5 18.5t-19.5 46.5q0 95 14.5 285.5t14.5 285.5q0 52 17.5 66.5t70.5 14.5h224 q148 1 222 1q128 0 128 -66q0 -63 -110 -63q-278 0 -431 10v-388q47 29 124 29q190 0 330 -119q146 -126 146 -312t-128.5 -321t-313.5 -135q-112 0 -219 60.5t-163 157.5q-10 18 -10 31z" />
<glyph unicode="6" horiz-adv-x="1053" d="M125 471q0 208 104 478q107 278 251 416q83 -12 83 -53q0 -5 -10 -20q-155 -220 -227 -435q97 53 224 53q186 0 309.5 -119t123.5 -303q0 -188 -126 -334q-133 -154 -318 -154q-196 0 -309 140q-105 130 -105 331zM256 483q0 -154 65 -246q73 -104 222 -104 q128 0 218 113q87 104 87 235q0 127 -85 211.5t-212 84.5q-126 0 -210.5 -84t-84.5 -210z" />
<glyph unicode="7" horiz-adv-x="877" d="M60 1331q0 34 730 34q55 0 55 -54q0 -31 -133 -301q-82 -165 -164 -331q-123 -254 -178 -425q-15 -75 -59 -211q-19 -43 -55 -43q-27 0 -47 18t-20 45q0 145 212 589q147 297 295 594h-302q-191 10 -304 10q-30 43 -30 75z" />
<glyph unicode="8" horiz-adv-x="1120" d="M121 375q0 115 62.5 213t166.5 146q-125 85 -125 251q0 160 101 270t259 110q135 0 232.5 -103t97.5 -240q0 -184 -145 -283q102 -48 160 -143.5t58 -209.5q0 -178 -147 -287q-131 -99 -315 -99q-176 0 -290.5 100.5t-114.5 274.5zM246 379q0 -120 76.5 -184t198.5 -64 q133 0 227 60q109 70 109 195q0 138 -116 215q-99 65 -246 65q-99 0 -174 -93t-75 -194zM352 992q0 -180 196 -180q87 0 158.5 60t71.5 145q0 87 -59.5 151t-145.5 64q-221 0 -221 -240z" />
<glyph unicode="9" horiz-adv-x="1015" d="M44 821q0 205 173.5 374.5t379.5 169.5q127 0 203 -74t76 -200q0 -21 -6 -67q-15 -143 -54 -352q-34 -174 -67 -348q-19 -106 -71 -312q-33 -12 -62 -12q-39 0 -39 27q0 45 43 268q29 145 56 289q-142 -104 -280 -104q-140 0 -246 100.5t-106 240.5zM177 814 q0 -85 70 -140q65 -53 152 -53q106 0 200 73.5t120 175.5q27 110 27 207q0 152 -149 152q-153 0 -286.5 -131.5t-133.5 -283.5z" />
<glyph unicode=":" horiz-adv-x="478" d="M130 72q0 39 35 78t74 39q36 0 59 -33t23 -71q22 -36 -15.5 -60.5t-73.5 -24.5q-102 0 -102 72zM150 637q0 39 25.5 79t61.5 40q39 0 72.5 -24t33.5 -61q0 -45 -48 -72q-39 -20 -88 -20q-57 0 -57 58z" />
<glyph unicode=";" horiz-adv-x="413" d="M84 -68q0 5 31.5 62t34.5 66q10 25 22 52.5t30 40.5t32 13q66 0 66 -65q17 -43 -38 -121.5t-93 -104.5q-85 24 -85 57zM143 640q0 38 27.5 68.5t65.5 30.5q30 0 55.5 -23t25.5 -54q0 -32 -35 -63.5t-67 -31.5q-72 0 -72 73z" />
<glyph unicode="&#x3c;" horiz-adv-x="695" d="M31 749q0 19 18 48q36 53 180 203q157 161 187 161q23 0 39 -17.5t16 -39.5q0 -27 -68 -102l-96 -96q-53 -56 -114 -131q34 -21 145 -103q70 -46 196 -150q21 -20 21 -41q0 -25 -20.5 -45.5t-46.5 -20.5q-27 0 -114 65q-58 44 -115 88q-68 41 -198 128q-30 24 -30 53z " />
<glyph unicode="=" horiz-adv-x="855" d="M150 795q0 55 87 70q132 24 371 24q54 0 54 -65q0 -41 -46 -61q-78 -34 -408 -34q-58 0 -58 66zM181 546q0 56 65 72q94 22 358 22q99 0 99 -73q0 -40 -46 -55q-89 -29 -391 -29q-85 0 -85 63z" />
<glyph unicode="&#x3e;" horiz-adv-x="689" d="M131 1094q0 26 21.5 46.5t48.5 20.5q28 0 113 -65q56 -43 113 -87q66 -41 198 -128q30 -23 30 -52q0 -22 -17 -51q-29 -48 -179 -201q-159 -162 -189 -162q-23 0 -38 18.5t-15 40.5q0 28 68 103q46 48 94 95q73 76 118 132q-55 32 -145 99q-70 46 -198 152q-23 22 -23 39 z" />
<glyph unicode="?" horiz-adv-x="826" d="M63 1152q0 102 173 166q133 47 261 47q104 0 181 -44q92 -53 92 -150q0 -87 -120 -239q-109 -128 -220 -256q-119 -142 -119 -203q0 -24 82 -33q52 -3 104 -7q59 -13 59 -59q0 -69 -109 -69q-266 0 -266 175q0 88 121 240q111 128 224 256q121 142 121 203q0 12 -16 26 q-52 44 -153 44q-72 0 -166 -25q-109 -29 -141 -77q-46 -36 -82 -36q-26 0 -26 41zM312 77q0 34 16 68q18 41 49 41q36 0 66.5 -23t30.5 -57q0 -38 -33 -72t-71 -34q-58 0 -58 77z" />
<glyph unicode="@" horiz-adv-x="1319" d="M128 620q0 97 32 182q77 203 222 326q159 135 364 135q193 0 322 -140q125 -137 125 -331q0 -155 -61 -289q-79 -167 -216 -167q-133 0 -184 113q-68 -46 -150 -46q-92 0 -152.5 53t-60.5 145q0 123 105 219t229 96q39 0 74 -8q11 -32 11 -63q0 -41 -29 -41 q-8 0 -23.5 3.5t-23.5 3.5q-79 0 -151.5 -66t-72.5 -144q0 -74 99 -74q75 0 132 91q22 136 63 191q22 29 49 29q67 0 67 -61q0 -74 -33 -149q-22 -51 -22 -77q0 -83 73 -83q74 0 115 136q31 103 31 200q0 130 -91.5 229t-219.5 99q-225 0 -367 -188q-121 -161 -121 -336 q0 -134 85 -233t217 -117q36 -5 78 -5q35 0 104 8.5t103 8.5q55 0 55 -67q0 -39 -47 -60q-56 -24 -208 -24q-213 0 -345 111q-177 151 -177 390z" />
<glyph unicode="A" horiz-adv-x="1000" d="M24 26q0 58 181 561q112 307 223 614q11 45 45 123q19 29 36 36q12 5 49 5q24 0 39 -25q40 -65 74 -173q25 -92 51 -182q51 -168 136 -476q108 -390 108 -448q0 -25 -19 -43t-44 -18q-34 0 -51 41q-9 19 -28 121q-10 56 -68 277h-32q-77 0 -230 -16.5t-228 -16.5 q-49 -131 -141 -394q-31 -12 -62 -12q-39 0 -39 26zM312 536q53 2 205 15q130 12 207 12q-82 294 -186 603q-84 -241 -226 -630z" />
<glyph unicode="B" horiz-adv-x="1132" d="M46 1292q0 73 174 73q287 0 492 -80q286 -111 286 -350q0 -164 -196 -239q120 -44 196 -121q93 -90 93 -203q0 -196 -202 -295q-157 -77 -377 -77q-230 0 -404 73q-4 19 -4 33q0 65 31 65q34 0 118 -28v125q6 78 6 126v423q-29 287 -29 422q-61 -3 -121 -8q-63 27 -63 61 zM348 1232q2 -100 2 -432q27 -274 27 -440q0 -143 -12 -234q65 -7 120 -7q172 0 297 45q179 65 179 205q0 100 -149 179q-111 58 -240 78q-53 4 -152 26q-46 19 -46 56q0 26 16 46.5t42 20.5q15 0 46 -2.5t46 -2.5q111 0 213 37q135 51 135 142q0 143 -200 225 q-146 58 -324 58z" />
<glyph unicode="C" horiz-adv-x="939" d="M43 579q0 271 131 506q155 280 405 280q88 0 177 -71q96 -75 96 -161q0 -66 -64 -66q-30 0 -58 44q-46 73 -54 82q-39 44 -101 44q-189 0 -307 -251q-97 -206 -97 -419q0 -188 82 -308q95 -138 274 -138q207 0 265 174q29 10 60 10q42 0 42 -37q0 -21 -24 -72 q-90 -196 -344 -196q-239 0 -369 176q-114 155 -114 403z" />
<glyph unicode="D" horiz-adv-x="1022" d="M49 109q0 26 20 44.5t45 18.5q28 0 63 -15q-3 178 -3 1044q-20 -6 -39 -6q-41 0 -39 39q34 85 111 114q51 17 163 17q270 0 446 -215q165 -201 165 -478q0 -278 -184 -472q-186 -200 -462 -200q-81 0 -166 22q-120 31 -120 87zM278 1244q4 -368 4 -1107q29 -2 54 -2 q222 0 369 160.5t147 383.5q0 142 -58 272q-64 140 -173 215q-118 80 -297 80q-27 0 -46 -2z" />
<glyph unicode="E" horiz-adv-x="867" d="M65 128q0 196 7.5 586t7.5 586q0 65 611 65q77 -1 109 -10q53 -14 53 -58q0 -55 -53 -55q-83 0 -248 3.5t-247 3.5q-81 0 -117 2q10 -186 10 -481h213q43 0 126 1.5t125 1.5q58 0 58 -54q0 -52 -58 -64q-36 -6 -118 -6h-99q-66 1 -250 1v-536q274 12 553 12 q100 0 100 -63q0 -60 -90 -60q-91 0 -277 -1.5t-280 -1.5q-78 0 -107 24.5t-29 103.5z" />
<glyph unicode="F" horiz-adv-x="847" d="M67 1254q0 69 34 93q27 18 629 18q117 0 117 -65q0 -56 -59 -56h-121q-80 2 -119 2q-41 0 -124.5 -2t-124.5 -2q-62 0 -123 4v-471q329 5 430 5q135 0 135 -72q0 -53 -52 -53q-25 0 -76.5 2.5t-76.5 2.5q-44 0 -134 -2.5t-226 -2.5v-626q-43 -29 -77 -29q-27 0 -27 29 q0 205 -2.5 613t-2.5 612z" />
<glyph unicode="G" horiz-adv-x="1002" d="M41 691q0 244 114 441q137 233 362 233q205 0 350 -203q-27 -73 -63 -73q7 0 -96.5 75t-181.5 75q-173 0 -273 -195q-81 -158 -81 -349q0 -219 89 -372q109 -188 312 -188q86 0 137 34q43 29 92 107q12 19 12 31v331h-31q-35 0 -105 -6t-106 -6q-65 0 -125 19 q-19 38 -19 70q0 31 48 36q-2 0 -2 -1t72 -1q50 0 150.5 7t150.5 7q17 0 23 -2q35 -8 46 -18.5t19 -46.5q14 -51 14 -157v-133q-2 -89 -2 -133q0 -217 -20.5 -276.5t-69.5 -59.5q-57 0 -57 60q0 30 4 70q-97 -67 -234 -67q-258 0 -404 225q-125 193 -125 466z" />
<glyph unicode="H" horiz-adv-x="1036" d="M65 55v1273q56 31 90 31q28 0 28 -31v-280q3 -236 3 -280q97 -3 121 -3q79 0 236.5 11.5t236.5 11.5q37 0 72 -1v131q-4 87 -4 132q0 160 12 285q41 30 77 30q32 0 32 -78q0 -200 -2.5 -597.5t-2.5 -595.5q0 -94 -59 -94q-58 0 -58 659q-407 -19 -509 -19q-92 0 -152 7 q0 -92 -1.5 -275.5t-1.5 -277.5t-62 -94q-56 0 -56 55z" />
<glyph unicode="I" horiz-adv-x="461" d="M34 1319q0 36 45 36q6 0 20 -1.5t20 -1.5q43 0 126.5 6.5t126.5 6.5q55 0 55 -49q0 -50 -63 -65q-21 -5 -103 -9q10 -93 10 -469q4 -218 4 -654q80 -1 99 -5q53 -13 53 -61q0 -53 -263 -53q-43 0 -74 3q-30 43 -30 76q0 37 109 37q-7 159 -7 621q-3 60 -3 251 q-7 147 -7 251q-51 2 -101 12q-17 38 -17 68z" />
<glyph unicode="J" horiz-adv-x="869" d="M5 401q0 53 10 97q38 19 72 19q36 0 36 -39q0 -7 -2 -21.5t-2 -21.5q0 -121 60 -208q67 -99 183 -99q317 0 317 620q0 110 -8 220q0 8 -17 169q-11 100 -11 169q0 59 60 59q51 0 68 -59q7 -26 14 -137q2 -34 17 -220q12 -135 12 -222q0 -283 -85 -471 q-115 -256 -362 -256q-159 0 -263 123q-99 116 -99 278z" />
<glyph unicode="K" horiz-adv-x="916" d="M65 1271q0 94 61 94q57 0 57 -672l448 548q28 37 89 104q24 20 39 20q24 0 42 -19.5t18 -45.5q0 -15 -13 -39q-9 -15 -99 -121q-19 -22 -340 -415q63 -63 237 -300q55 -77 169 -227q31 -32 82 -106q9 -15 9 -29q0 -25 -20 -44t-45 -19q-17 0 -38.5 18t-79.5 100 q-108 150 -179 247q-72 91 -207 277q-49 -57 -107 -115q1 -145 1 -269q0 -149 -3 -229q-41 -29 -77 -29q-20 0 -27 29q-5 24 -5 178q0 177 -6 532t-6 532z" />
<glyph unicode="L" horiz-adv-x="840" d="M63 1277q0 88 63 88q65 0 65 -128q0 -17 -1.5 -52.5t-1.5 -52.5q0 -137 5 -411t5 -410v-192h276q243 9 263 9q103 0 103 -65q0 -56 -81 -56q-70 0 -209.5 -3.5t-209.5 -3.5q-178 0 -214 15q-46 21 -46 258q0 167 -8.5 501.5t-8.5 502.5z" />
<glyph unicode="M" horiz-adv-x="1207" d="M65 1193q0 72 10 109q15 55 60 55q19 0 37.5 -13t18.5 -32q0 -5 -2 -10q48 -111 241 -597q65 -164 196 -492l285 814q28 84 55 168q44 131 60 146q22 24 49 24q65 0 65 -114v-1222q-41 -29 -77 -29q-22 0 -30.5 30.5t-8.5 203.5q0 126 -2.5 377t-2.5 377 q-85 -240 -251 -723q-15 -52 -31 -103q-18 -65 -41 -97q-34 -53 -78 -53q-29 0 -57 43q-17 27 -81 198q-98 249 -292 749v-283q7 -176 7 -284q0 -217 -12 -406q-41 -29 -75 -29q-31 0 -31 55q0 13 1.5 42t1.5 43q0 176 -7.5 526.5t-7.5 526.5z" />
<glyph unicode="N" horiz-adv-x="1000" d="M65 1229q0 109 24 124q7 6 48 6q27 0 39 -12q92 -87 215 -297q41 -69 181 -328q121 -225 247 -475v564q0 85 -4 257.5t-4 257.5q0 15 30 29q24 10 43 10q21 0 29 -29q21 -70 21 -310v-970q0 -56 -87 -56q-24 0 -47 27q-29 36 -58 99q-23 53 -47 106q-246 510 -509 917 q2 -110 2 -931q0 -18 2.5 -54t2.5 -55q0 -109 -63 -109q-57 0 -57 794q1 21 1 48q0 67 -4 169q-5 144 -5 218z" />
<glyph unicode="O" horiz-adv-x="1048" d="M48 592q0 272 107 493q135 280 376 280q232 0 363 -249q106 -201 106 -457q0 -255 -111 -439q-131 -220 -368 -220q-236 0 -362 186q-111 160 -111 406zM166 602q0 -211 81 -334q98 -145 299 -145q162 0 253 194q71 156 71 338q0 173 -49 316q-65 183 -191 244 q-53 26 -86 26q-61 0 -134 -38q-134 -68 -197 -263q-47 -150 -47 -338z" />
<glyph unicode="P" horiz-adv-x="1046" d="M48 1311q0 54 261 54q280 0 481 -112q244 -140 244 -398q0 -210 -201 -312q-157 -82 -388 -82q-97 0 -180 13v-382q-2 -92 -60 -92q-55 0 -55 53v225q5 161 5 224q-71 15 -71 71q0 29 21 48t50 12q2 203 2 608q-36 -4 -72 -7q-37 43 -37 77zM265 606q75 -12 163 -12 q180 0 299 44q176 63 176 210q0 219 -220 321q-164 77 -412 77q-6 -271 -6 -640z" />
<glyph unicode="Q" horiz-adv-x="1033" d="M34 592q0 268 109 493q135 280 374 280q232 0 364 -249q105 -201 105 -457q0 -388 -221 -572q78 -172 78 -200q0 -24 -19.5 -41t-43.5 -17q-29 0 -48 31q-2 3 -22 55q-15 39 -51 112q-74 -27 -152 -27q-236 0 -362 186q-111 160 -111 406zM155 601q0 -202 74 -325 q90 -151 303 -151q33 0 74 13q-58 118 -125 239q28 67 65 67q39 0 162 -239q152 162 152 467q0 197 -75 359q-96 208 -266 208q-195 0 -292 -235q-72 -175 -72 -403z" />
<glyph unicode="R" horiz-adv-x="1033" d="M49 1294q0 35 125 56q89 15 157 15q254 0 420 -68q235 -96 235 -311q0 -220 -375 -368q48 -82 148 -244q53 -79 106 -159q79 -123 79 -154q0 -23 -19.5 -41t-45.5 -18q-51 0 -135 135l-102 186q-51 83 -149 252q-135 -41 -251 -41v-421q0 -113 -63 -113q-54 0 -54 53v193 q3 153 3 191q2 263 2 790l-22 -7q-59 41 -59 74zM242 666q166 1 371 87q249 102 249 239q0 141 -205 208q-142 48 -322 48q-41 0 -89 -6q-4 -138 -4 -576z" />
<glyph unicode="S" horiz-adv-x="899" d="M39 341q0 26 21.5 44t47.5 18q32 0 56 -46q8 -21 29 -62q39 -71 130 -118q85 -44 170 -44q108 0 172.5 64t64.5 172q0 58 -36.5 109t-184.5 130q-192 102 -277 172q-157 128 -157 266q0 130 104 224.5t234 94.5q119 0 221 -70t134 -181q-39 -47 -73 -47q-12 0 -45 46 q-39 58 -77 85q-61 46 -150 46q-80 0 -150 -59t-70 -137q0 -43 31 -87q63 -92 235 -184q217 -113 267 -154q126 -104 126 -261t-106 -259.5t-263 -102.5t-280 87t-170 236q-4 10 -4 18z" />
<glyph unicode="T" horiz-adv-x="998" d="M15 1323q0 20 31 29q48 13 818 13q124 0 124 -66q0 -57 -58 -57h-200q-186 2 -199 2q7 -761 7 -828v-387q-48 -29 -82 -29t-34 70v26q1 15 1 23v239q-8 262 -8 886q-22 0 -92 -3q-58 -2 -93 -2q-87 0 -184 10q-31 41 -31 74z" />
<glyph unicode="U" horiz-adv-x="968" d="M48 698q0 123 13 314q19 258 23 314q42 31 78 31q24 0 24 -31q0 -97 -8.5 -292.5t-8.5 -292.5q0 -613 259 -613q360 0 360 823q0 59 -3 177t-3 178q0 59 58 59q46 0 66 -59q16 -43 16 -277q0 -1027 -489 -1027q-385 0 -385 696z" />
<glyph unicode="V" horiz-adv-x="915" d="M27 1304q45 53 79 53q13 0 24 -24q30 -72 58 -179q22 -91 44 -183q121 -459 232 -747q12 37 31 114q26 102 87 307q43 142 126 452q16 52 40 154q11 61 15 73q15 41 53 41q27 0 48.5 -20.5t21.5 -47.5q0 2 -4 -14q-24 -109 -78 -327q-65 -226 -190 -676q-25 -99 -37 -132 q-27 -83 -59.5 -115.5t-60.5 -32.5q-34 0 -61 48q-10 19 -32 78q-35 92 -99 278q-106 330 -238 900z" />
<glyph unicode="W" horiz-adv-x="1473" d="M55 1300q41 59 73 59q12 0 22 -18q17 -30 46 -119q140 -428 249 -947q128 500 178 855q5 48 10 97q9 58 24 94q19 44 51 44q24 0 45 -17q46 -39 73 -167q72 -336 256 -915l147 712q20 80 53 242q3 36 22 104q19 41 53 41q24 0 43.5 -18t19.5 -41q0 -6 -178 -866 q-22 -88 -63 -268q-7 -42 -30 -119q-28 -53 -60 -53q-34 0 -60 41q-19 29 -66 196q-62 203 -123 406q-72 241 -106 412q-94 -538 -208 -924q-7 -29 -29 -80q-36 -53 -74 -53q-30 0 -50 39.5t-30 105.5q-8 53 -17 108q-70 384 -271 1049z" />
<glyph unicode="X" horiz-adv-x="988" d="M53 1311q37 54 72 54q12 0 22 -15q17 -24 90.5 -164t260.5 -433q77 128 219 389q27 66 97 189q22 29 44 29q24 0 42 -18t18 -42q0 -58 -350 -655q364 -555 364 -589q0 -24 -19 -40t-43 -16q-25 0 -49 27q-14 16 -101 164q-75 113 -222 338q-184 -307 -322 -529h-9 q-87 0 -87 36q0 20 159 283q97 159 193 316q-97 153 -220 365q-69 120 -87 152q-46 87 -72 159z" />
<glyph unicode="Y" horiz-adv-x="983" d="M22 1292q31 70 65 70q21 0 73 -84q33 -53 309 -476q96 116 270 357q32 61 111 177q24 29 48 29q25 0 45 -18t20 -43q0 -53 -190 -318q-121 -163 -244 -327q9 -248 9 -466q0 -89 -9 -164q-37 -29 -73 -29q-43 0 -43 142q0 34 1.5 101.5t1.5 101.5v307q-204 278 -394 640z " />
<glyph unicode="Z" horiz-adv-x="952" d="M32 55q0 29 94 163q253 362 343 499q185 283 304 522q-97 -6 -277 -6h-53h-53q-180 0 -276 -6q-35 51 -35 89q0 25 35 36q45 12 120 12q20 0 63 -2t63 -2q84 0 251 2.5t251 2.5q58 0 58 -56q0 -58 -120 -280q-225 -420 -612 -916q481 8 674 9q56 0 56 -55q0 -48 -63 -60 q-17 -4 -99 -4q-44 0 -134.5 -1.5t-135.5 -1.5q-66 0 -197.5 1.5t-198.5 1.5q-58 0 -58 52z" />
<glyph unicode="[" horiz-adv-x="693" d="M191 1287q4 53 55 66q25 7 123 7q24 0 70.5 2.5t70.5 2.5q121 0 121 -70q0 -54 -83 -54h-29q-17 1 -27 1q-178 0 -177 -32t1 -700v-140q-2 -92 -2 -138q0 -78 -2 -111q144 10 217 10q109 0 109 -64q0 -53 -82 -65q-22 -4 -123 -4q-116 0 -171 15.5t-66 70.5 q-5 27 -5 1203z" />
<glyph unicode="\" horiz-adv-x="575" d="M24 1311q0 54 65 54q37 0 63 -42q15 -28 72 -202q75 -245 227 -735q29 -84 56 -166q39 -119 39 -160q0 -60 -61 -60q-36 0 -63 43q-33 51 -60 157q-21 82 -137 476q-53 159 -157 479q-44 140 -44 156z" />
<glyph unicode="]" horiz-adv-x="698" d="M49 1300q0 65 258 65q108 0 144 -18q51 -29 51 -127q0 -189 -2.5 -569.5t-2.5 -570.5q0 -51 -50.5 -66.5t-173.5 -15.5q-107 0 -128 4q-85 13 -85 70q0 54 83 54q11 0 29 -1h28q177 0 176 32t-1 829v256q-90 -6 -211 -6q-115 0 -115 64z" />
<glyph unicode="^" horiz-adv-x="800" d="M102 1096q0 44 93 143q87 92 134 113q33 13 58 13q64 0 156 -82q71 -61 124 -136q19 -26 19 -44q0 -26 -19.5 -46.5t-45.5 -20.5q-22 0 -122 101.5t-115 101.5q-17 0 -97 -80q-50 -51 -99 -103q-86 0 -86 40z" />
<glyph unicode="_" horiz-adv-x="1318" d="M196 0h922v-92h-922v92z" />
<glyph unicode="`" horiz-adv-x="422" d="M58 1734q0 24 21.5 41t46.5 17q17 0 41 -15q34 -23 103 -104q73 -88 73 -117q0 -25 -21.5 -44t-46.5 -19q-26 0 -57 33q-160 170 -160 208z" />
<glyph unicode="a" horiz-adv-x="828" d="M43 393q0 168 128.5 297t297.5 129q89 0 169 -39q12 49 60 49q67 0 67 -143q0 -75 -6 -222.5t-6 -222.5q0 -93 12 -174q-46 -53 -79 -53q-29 0 -36 88q-129 -102 -276 -102q-157 0 -249 121q-82 109 -82 272zM177 382q0 -97 47 -167q52 -80 145 -80q140 0 266 130v182 q7 128 7 183q-24 5 -86 34q-47 22 -90 22q-118 0 -203.5 -93t-85.5 -211z" />
<glyph unicode="b" horiz-adv-x="794" d="M63 113q0 189 5 565.5t5 565.5q0 121 67 121q65 0 65 -119v-498q73 68 198 68q167 0 276 -130q104 -125 104 -293q0 -161 -110 -277t-269 -116q-128 0 -227 89l-3 -40q-39 -30 -73 -30q-38 0 -38 94zM186 294q-3 -6 7 -19q49 -74 89 -103q53 -41 128 -41q10 0 25 4 q219 49 219 264q0 115 -67 200q-73 92 -184 92q-123 0 -217 -99v-298z" />
<glyph unicode="c" horiz-adv-x="759" d="M41 358q0 135 78.5 253t203.5 174q75 34 141 34q75 0 135 -53t73 -128q-37 -56 -70 -56q-11 0 -49.5 54.5t-84.5 54.5q-101 0 -196.5 -103t-95.5 -206q0 -104 42 -169q50 -78 149 -78q73 0 174 74t114 74q26 0 46.5 -20.5t20.5 -47.5q0 -12 -10 -29q-48 -78 -149.5 -132 t-195.5 -54q-143 0 -237 109q-89 104 -89 249z" />
<glyph unicode="d" horiz-adv-x="751" d="M10 393q0 162 104 290q113 138 270 138q87 0 166 -50v243q0 49 -5.5 147.5t-5.5 147.5q0 56 55 56q46 0 61 -56q9 -29 9 -125q8 -300 8 -611q0 -327 19 -527q-42 -34 -78 -34q-32 0 -32 46q0 9 1 19q-101 -77 -218 -77q-154 0 -256 121q-98 115 -98 272zM142 399 q0 -107 56 -186q63 -87 167 -87q123 0 202 91q-12 141 -12 392q-82 82 -173 82q-100 0 -172 -97q-68 -91 -68 -195z" />
<glyph unicode="e" horiz-adv-x="807" d="M43 396q0 157 109 287q116 138 270 138q107 0 189 -91q70 -76 102 -191q11 -36 11 -53q0 -42 -58 -59q-84 -26 -328 -26q-96 0 -164 5q0 -111 76 -192t185 -81q65 0 159 53t109 53q26 0 46.5 -17t20.5 -43q0 -19 -19 -42q-44 -58 -143 -99q-93 -38 -173 -38 q-159 0 -275.5 118.5t-116.5 277.5zM203 514q101 1 382 25q-54 152 -169 152q-63 0 -128 -60q-52 -49 -85 -117z" />
<glyph unicode="f" horiz-adv-x="720" d="M26 638q0 34 111 34q0 279 56 432q95 261 278 261q106 0 172 -80q64 -73 64 -182q0 -81 -65 -81q-45 0 -57.5 53t-23.5 104q-22 55 -81 55q-12 0 -24 -5q-191 -80 -191 -546q117 6 232 6q82 0 82 -58q0 -54 -313 -54q19 -184 48 -541q-51 -36 -87 -36q-24 0 -33.5 34 t-10.5 85q-4 82 -4 84q-3 36 -22 181q-15 111 -15 181h-86q-30 43 -30 73z" />
<glyph unicode="g" horiz-adv-x="785" d="M39 418q0 162 103 278q105 123 264 123q97 0 176 -51q48 31 85 31q28 0 36 -40q7 -32 7 -117q0 -63 10 -188.5t10 -188.5q0 -656 -329 -656q-85 0 -172 55.5t-125 132.5q-8 17 -8 34q0 26 21 43t47 17q24 0 92 -73.5t142 -73.5q157 0 193 309q-93 -53 -185 -53 q-155 0 -264 133q-103 126 -103 285zM169 423q0 -109 68 -196q74 -96 179 -96q45 0 96 28q44 24 89 49q0 84 -24 408q-72 79 -166 79q-102 0 -172 -83t-70 -189z" />
<glyph unicode="h" horiz-adv-x="799" d="M61 1336q0 29 57 29q48 0 65 -58q10 -36 10 -164v-230q10 -167 12 -229q114 154 287 154q177 0 245 -159q46 -106 46 -310q0 -212 -30 -309q-19 -60 -67 -60q-60 0 -60 60q0 63 14 188.5t14 188.5q0 276 -173 276q-99 0 -179 -102q-63 -84 -92 -196q0 -256 -12 -386 q-41 -29 -75 -29q-38 0 -38 96v160q2 106 2 159v688q-26 204 -26 233z" />
<glyph unicode="i" horiz-adv-x="229" d="M44 55v169q9 121 9 358q0 113 14.5 166.5t60.5 53.5q53 0 54 -56q5 -28 4 -65q0 -52 -10 -121q-5 -137 -7 -185q-2 -90 -2 -179q-5 -104 -19 -179q-37 -17 -64 -17q-40 0 -40 55zM49 1038q0 73 64 73q32 0 56 -21.5t24 -51.5q0 -29 -19 -52t-48 -23t-53 23t-24 52z" />
<glyph unicode="j" horiz-adv-x="591" d="M3 -84q41 29 81 29q20 0 27 -29q24 -104 34 -131q34 -80 94 -80q107 0 152 205q25 122 25 291q0 84 -6.5 249.5t-6.5 249.5q0 100 66 100q60 0 60 -85t7.5 -253t7.5 -254q-12 -230 -47 -384q-75 -237 -251 -237q-116 0 -185 111q-58 95 -58 218zM386 1046q0 63 65 63 q81 0 81 -75q0 -27 -23 -46.5t-50 -19.5q-73 0 -73 78z" />
<glyph unicode="k" horiz-adv-x="758" d="M65 58q0 84 5 251t5 647q0 58 -2.5 175.5t-2.5 177.5q0 56 58 56q46 0 58 -46q3 -17 3 -145q0 -60 3 -181t3 -181v-355q68 52 211 154q94 68 254 203q89 -8 89 -44q0 -7 -7 -17q-63 -94 -309 -268q65 -74 178 -219q140 -182 140 -213q0 -22 -19.5 -37.5t-43.5 -15.5 q-22 0 -48 26q-17 17 -97 131q-104 148 -197 266q-46 -32 -158 -114q-4 -191 -19 -292q-36 -17 -65 -17q-39 0 -39 58z" />
<glyph unicode="l" horiz-adv-x="247" d="M53 1287q0 78 58 78q65 0 65 -136q0 -16 -2 -48v-46q0 -138 10.5 -414t10.5 -414q0 -153 -14 -276q-43 -31 -77 -31q-36 0 -36 94v61q2 43 2 63q0 178 -8.5 534.5t-8.5 534.5z" />
<glyph unicode="m" horiz-adv-x="1096" d="M63 80v340q4 121 4 362q49 29 85 29q29 0 29 -44v-9q75 66 169 66q143 0 210 -121q85 116 213 116q263 0 263 -403q0 -59 -7.5 -178t-7.5 -178q0 -60 -60 -60q-65 0 -65 121q0 51 7 152.5t7 153.5q0 271 -139 271q-114 0 -169 -138q11 -68 11 -138q0 -60 -8.5 -178.5 t-8.5 -178.5t-60 -60q-65 0 -65 121q0 51 7.5 152t7.5 152q0 273 -138 273q-104 0 -162 -124q-2 -166 -2 -468q0 -111 -63 -111q-58 0 -58 80z" />
<glyph unicode="n" horiz-adv-x="748" d="M63 80v340q4 121 4 362q49 29 81 29q33 0 33 -60v-7q92 80 213 80q297 0 297 -401q0 -59 -9.5 -178.5t-9.5 -179.5q0 -26 -17 -44.5t-42 -18.5q-65 0 -65 123q0 51 7.5 150.5t7.5 151.5q0 276 -174 276q-133 0 -205 -131v-456q0 -116 -63 -116q-58 0 -58 80z" />
<glyph unicode="o" horiz-adv-x="754" d="M46 377q0 174 82 302q96 149 259 149q154 0 243 -130q77 -114 77 -275q0 -170 -81 -288q-92 -135 -254 -135q-152 0 -242 114q-84 106 -84 263zM167 391q0 -266 212 -266q101 0 157 104q46 83 46 194q0 101 -48 183q-54 97 -148 97q-219 0 -219 -312z" />
<glyph unicode="p" horiz-adv-x="746" d="M60 761q0 58 58 58q63 0 65 -61q70 54 172 54q159 0 270 -136q105 -130 105 -292q0 -154 -90 -265q-97 -119 -247 -119q-93 0 -185 53q0 -19 2 -79v-78q0 -116 -14 -203q-29 -36 -58 -36q-53 0 -53 133q0 24 2 72.5t2 72.5q0 138 -14.5 413t-14.5 413zM195 592 q6 -145 6 -384q101 -80 192 -80q92 0 153 84q56 76 56 172q0 114 -66 207q-75 100 -184 100q-110 0 -157 -99z" />
<glyph unicode="q" horiz-adv-x="727" d="M14 370q0 159 105 301q115 153 268 153q86 0 159 -58q-2 65 56 65q60 0 60 -87v-355v-691q-61 -31 -95 -31q-24 0 -24 31v351q-74 -49 -164 -49q-152 0 -258.5 109t-106.5 261zM142 364q0 -101 71.5 -173t173.5 -72q93 0 163 81v392q-67 106 -157 106q-103 0 -181 -119 q-70 -108 -70 -215z" />
<glyph unicode="r" horiz-adv-x="703" d="M65 657q0 63 8 102q12 57 57 57q58 0 58 -82q0 -15 -2 -43q113 123 244 123q133 0 205 -114q60 -96 60 -237q0 -60 -58 -60q-53 0 -69 75q-13 68 -27 138q-27 75 -104 75q-91 0 -174.5 -82.5t-83.5 -173.5v-406q-48 -29 -82 -29q-29 0 -29 58q0 32 -1.5 94.5t-1.5 504.5z " />
<glyph unicode="s" horiz-adv-x="693" d="M39 162q17 85 51 85q-1 0 -1 -1q1 -6 95 -64q104 -66 190 -66q128 0 157 79q-4 85 -123 158q-109 60 -220 120q-118 73 -118 158q0 86 92 142q80 48 171 48q60 0 131 -26q91 -32 91 -80q0 -26 -19 -46t-44 -20q-18 0 -69 21t-82 21q-117 0 -145 -61q41 -60 168 -121 q151 -74 196 -110q94 -76 94 -196q0 -95 -93 -154q-80 -49 -182 -49q-212 0 -340 162z" />
<glyph unicode="t" horiz-adv-x="611" d="M9 790q0 21 25.5 32t204.5 11v396q0 54 56 54q58 0 58 -54v-394q116 3 191 3q60 0 60 -56q0 -50 -60 -63q-30 -7 -189 -7v-681q-61 -31 -94 -31q-25 0 -25 31q0 48 1.5 142.5t1.5 536.5h-68q-87 0 -139 9q-23 42 -23 71z" />
<glyph unicode="u" horiz-adv-x="795" d="M53 596q0 141 18.5 185.5t59.5 44.5q69 0 69 -63q0 -39 -6 -119.5t-6 -119.5q0 -142 32 -244q48 -154 155 -154q94 0 163 96q59 83 68 184q3 45 3 191v15q0 108 14 175q37 22 72 22q34 0 34 -85q0 -26 -2 -79v-363q0 -38 1.5 -113t1.5 -113q0 -56 -56 -56q-46 0 -58 48 q-5 19 -5 83q-94 -131 -237 -131q-321 0 -321 596z" />
<glyph unicode="v" horiz-adv-x="724" d="M26 765q42 51 75 51q13 0 25 -22q26 -64 77 -190q58 -131 167 -394q60 155 166 469q8 40 37 116q23 41 55 41q63 0 63 -54q0 -91 -106 -372q-93 -248 -158 -367q-24 -43 -58 -43t-60.5 41t-52.5 113q-20 59 -43 119q-49 121 -100 244q-57 140 -87 248z" />
<glyph unicode="w" horiz-adv-x="1044" d="M58 780q39 34 73 34q38 0 77 -167q22 -104 45 -208q12 -48 61 -209q36 134 108 401q11 57 51 164q20 40 53 40q29 0 54.5 -32.5t144.5 -526.5q36 117 103 350q10 58 46 169q20 40 53 40q59 0 59 -55q0 -41 -98 -376.5t-117 -360.5q-23 -33 -54 -33q-33 0 -51 39 q-7 16 -29 123q-12 62 -108 408l-101 -365q-12 -60 -53 -172q-23 -43 -64 -43q-35 0 -58 39q-43 70 -115 357q-63 258 -80 384z" />
<glyph unicode="x" horiz-adv-x="759" d="M55 65q0 19 20 49q73 98 220 294q-112 162 -240 321q17 83 53 83q46 0 259 -307q49 65 145 198q20 33 70 94q27 27 53 27q25 0 45 -17t20 -41q0 -29 -255 -375q82 -116 151 -200q27 -29 76 -92q16 -22 16 -38q0 -23 -17 -42t-41 -19q-55 0 -256 292q-120 -161 -205 -272 q-32 -11 -60 -11q-54 0 -54 56z" />
<glyph unicode="y" horiz-adv-x="794" d="M44 761q38 56 72 56q12 0 22 -13q22 -31 79 -169q65 -143 189 -430q111 222 186 409q21 62 77 176q20 29 46 29q24 0 45.5 -17t21.5 -41q0 -3 -5 -17q-106 -266 -250 -558q-162 -331 -291 -531h-9q-89 0 -89 36q0 5 193 369q-72 177 -222 529q-27 56 -65 172z" />
<glyph unicode="z" horiz-adv-x="766" d="M55 53q0 37 25 75q51 58 149 176q97 131 297 392h-277q-89 0 -141 7q-31 43 -31 77q0 22 31 31q44 13 375 13q27 0 84 -1h83q24 0 41 -19t17 -43q0 -20 -75 -119q-49 -63 -97 -125q-77 -102 -154 -203q-88 -116 -164 -196q333 10 384 10q101 0 101 -65q0 -63 -114 -63 q-22 0 -65.5 1.5t-66.5 1.5q-47 0 -144.5 -1.5t-145.5 -1.5q-100 0 -109 27q-3 9 -3 26z" />
<glyph unicode="{" horiz-adv-x="882" d="M73 654q0 41 50 61q75 31 244 31q15 0 15 15q0 29 -53 80q-78 75 -99 101q-53 70 -53 145q0 142 190 219q143 59 311 59q52 0 52 -49q0 -46 -85 -65t-172 -38q-109 -27 -150 -87q-19 -27 -19 -46q0 -12 10 -34q19 -41 121 -128q79 -68 79 -153q0 -33 -9 -58 q55 -36 55 -98q0 -82 -112.5 -196t-112.5 -179q0 -99 184 -99q42 0 119 16t104 16q26 0 44 -20.5t18 -45.5q0 -36 -43 -58q-83 -43 -249 -43q-125 0 -210 56q-101 63 -101 183q0 82 62 165q60 70 119 139q28 32 40 56q-24 9 -47 9t-63 -7q-47 -10 -63 -12q-51 -5 -118 -5 q-58 0 -58 70z" />
<glyph unicode="|" horiz-adv-x="507" d="M166 1256q0 109 64 109q57 0 69 -66q3 -17 3 -109q0 -137 2.5 -412.5t2.5 -412.5v-300q0 -65 -66 -65q-67 0 -67 65v966q-3 27 -3 112q-5 70 -5 113z" />
<glyph unicode="}" horiz-adv-x="884" d="M75 1265q0 34 44 56q91 44 250 44q124 0 210 -54q100 -65 100 -185q0 -82 -61 -167l-120 -140q-27 -32 -39 -56q24 -9 50 -9q13 0 73 11q70 12 167 12q57 0 57 -69q0 -42 -48 -63q-69 -29 -231 -29q-29 0 -29 -17q0 -29 53 -78q79 -72 99 -98q53 -68 53 -143 q0 -142 -189 -220q-144 -60 -311 -60q-53 0 -53 51q0 39 53 58q111 26 220 50q152 44 152 128q0 42 -104 135t-104 177q0 31 8 56q-54 36 -54 96q0 82 112.5 198t112.5 181q0 99 -184 99q-43 0 -119.5 -15.5t-104.5 -15.5q-25 0 -44 20.5t-19 46.5z" />
<glyph unicode="~" horiz-adv-x="949" d="M145 1167q0 14 9 33q29 68 89.5 113.5t131.5 45.5q79 0 140.5 -50.5t75.5 -50.5q42 0 86.5 53.5t75.5 53.5q61 0 61 -59q0 -65 -81 -123t-149 -58q-62 0 -117.5 55.5t-91.5 55.5q-49 0 -92.5 -64t-74.5 -64q-24 0 -43.5 17.5t-19.5 41.5z" />
<glyph unicode="&#xa1;" horiz-adv-x="394" d="M99 988q0 27 24.5 59t52.5 32q29 0 53.5 -30t24.5 -59q0 -27 -19.5 -61.5t-43.5 -34.5q-27 0 -59.5 32.5t-32.5 61.5zM118 423q0 45 1.5 132t1.5 131t4 63q5 29 29 29q32 0 75 -29v-655q24 -297 24 -311q1 -54 -57 -54q-48 0 -61 54q-5 24 -5 144q-12 179 -12 496z" />
<glyph unicode="&#xa2;" horiz-adv-x="751" d="M73 787q0 99 48 196q50 104 128 154q41 25 94 39v55q0 134 63 134q55 0 55 -68v-56q-2 -43 -2 -57q96 -8 164 -61q75 -58 82 -150q-43 -34 -74 -34q-13 0 -32 30q-24 40 -44 57q-36 32 -96 37v-486q15 2 62 14q40 11 64 11q55 0 55 -63q0 -83 -191 -83q-4 -62 -17 -166 q-36 -15 -70 -15q-36 0 -36 179q-109 27 -181 119.5t-72 213.5zM217 770q0 -137 123 -179q3 95 3 141v333q-119 -75 -119 -167q0 -22 -3.5 -64t-3.5 -64z" />
<glyph unicode="&#xa5;" horiz-adv-x="1137" d="M99 1316q0 49 56 49q21 0 43 -24q12 -13 113 -174q122 -198 249 -394q90 126 264 381q33 63 110 181q22 29 47 29q26 0 45.5 -18t19.5 -44q0 -13 -7 -31q-59 -145 -192 -322q-115 -149 -231 -297l2 -84q66 5 126 5q123 0 123 -68q0 -65 -133 -65h-58q-39 2 -56 2 q1 -55 1 -166q19 0 53 2h53q142 0 142 -71q0 -57 -60 -57h-186q-2 -70 -5 -90q-12 -60 -55 -60q-60 0 -60 154h-66q-43 -2 -63 -2q-157 0 -157 60q0 66 129 66h79q58 -2 77 -2v149q1 3 0 17q-77 -2 -123 -2q-176 0 -176 67q0 53 51 53q22 0 67 -2h68q74 0 111 2v87 q-292 399 -394 642q-7 15 -7 27z" />
<glyph unicode="&#xa6;" horiz-adv-x="521" d="M179 1256q0 109 65 109q73 0 73 -121v-370q0 -65 -66 -65q-67 0 -67 63q0 65 -2.5 193t-2.5 191zM183 543q0 109 64 109q74 0 74 -121v-466q-4 -65 -67 -65q-66 0 -66 65q0 80 -2.5 239t-2.5 239z" />
<glyph unicode="&#xa8;" horiz-adv-x="806" d="M160 1591q0 34 35 73t70 39q64 0 64 -92q0 -84 -104 -84q-25 0 -45 19t-20 45zM495 1615q0 92 84 92q27 0 51 -20.5t24 -48.5q0 -39 -26.5 -69.5t-66.5 -30.5q-25 0 -45.5 25.5t-20.5 51.5z" />
<glyph unicode="&#xa9;" horiz-adv-x="1273" d="M145 408q0 191 120.5 325t309.5 134q200 0 376 -121q194 -135 194 -326q0 -196 -182 -316q-161 -104 -367 -104q-195 0 -320 106q-131 111 -131 302zM261 422q0 -137 96 -217q90 -75 228 -75q154 0 277 61q155 77 155 215q0 147 -160 248q-142 88 -299 88 q-133 0 -215 -93t-82 -227zM394 391q0 92 77 153q72 57 167 57q48 0 92 -22q53 -28 53 -70q0 -50 -53 -50q-15 0 -44 10.5t-44 10.5q-40 0 -77 -23q-43 -25 -43 -63q0 -29 34 -49q29 -21 60 -21q27 0 58 23t48 23q26 0 46 -17.5t20 -43.5q0 -41 -63 -84q-54 -29 -107 -29 q-87 0 -155.5 54.5t-68.5 140.5z" />
<glyph unicode="&#xab;" horiz-adv-x="1314" d="M96 749q0 19 18 48q36 53 180 203q157 161 187 161q22 0 38.5 -17.5t16.5 -39.5q0 -27 -68 -102l-96 -96q-53 -56 -114 -131q34 -21 145 -103q70 -46 196 -150q21 -20 21 -41q0 -25 -20.5 -45.5t-46.5 -20.5q-27 0 -114 65q-58 44 -115 88q-68 41 -198 128q-30 24 -30 53 zM626 749q0 19 19 48q36 53 179 203q156 161 186 161q23 0 40 -17.5t17 -39.5q0 -27 -69 -102q-47 -48 -95 -96q-63 -66 -116 -131q42 -26 147 -103q68 -46 194 -150q21 -22 21 -41q0 -25 -20.5 -45.5t-46.5 -20.5q-27 0 -114 65q-57 44 -113 88q-68 41 -198 128 q-31 24 -31 53z" />
<glyph unicode="&#xad;" d="M150 666q0 34 37.5 46.5t215.5 12.5q32 0 94.5 6t94.5 6q63 0 63 -61q0 -72 -184 -72q-44 0 -133 3.5t-133 3.5q-55 0 -55 55z" />
<glyph unicode="&#xae;" horiz-adv-x="1415" d="M147 509q0 232 119 368q125 145 354 145q242 0 445 -152q224 -163 224 -397q0 -215 -207 -352q-183 -121 -410 -121q-223 0 -372 142q-153 145 -153 367zM270 527q0 -181 113.5 -291t294.5 -110q167 0 314 91q169 106 169 263q0 169 -202 302q-181 119 -360 119 q-166 0 -251 -107q-78 -98 -78 -267zM432 696q0 50 83 75q58 17 128 17q94 0 166 -40q85 -48 85 -135q0 -116 -145 -173q111 -58 118 -61q82 -51 82 -91q0 -25 -18 -45.5t-44 -20.5q-22 0 -49 17q-61 37 -186 109q19 -75 19 -80q0 -53 -58 -53q-55 0 -77 89q-21 80 -21 191 q0 84 12 150l-12 -5l6 3q-16 -6 -33 -6q-56 0 -56 59zM630 538q138 29 138 68q0 56 -130 56q-8 -71 -8 -124z" />
<glyph unicode="&#xaf;" d="M150 1512q0 34 37.5 47t215.5 13q32 0 94.5 6t94.5 6q63 0 63 -62q0 -71 -184 -71q-44 0 -133 3t-133 3q-55 0 -55 55z" />
<glyph unicode="&#xb0;" horiz-adv-x="787" d="M135 1111q0 104 77.5 179t181.5 75q101 0 177 -59.5t76 -158.5q0 -108 -76 -177t-184 -69q-95 0 -170 56q-82 62 -82 154zM266 1118q0 -41 46 -65q36 -20 82 -20q50 0 85.5 34t35.5 83q0 40 -44 62q-38 19 -80 19q-46 0 -85.5 -33.5t-39.5 -79.5z" />
<glyph unicode="&#xb1;" horiz-adv-x="712" d="M46 672q0 79 183 79q25 0 58 -2v227q0 60 58 60q53 0 63 -60q7 -39 7 -237h187q53 0 53 -61q0 -67 -146 -67q-62 0 -94 2v-224q0 -58 -57 -58q-51 0 -63 58q-8 44 -8 232q-53 4 -63 4q-19 0 -58.5 -6t-57.5 -6q-24 0 -43 18t-19 41zM73 61q0 35 37.5 47.5t268.5 12.5 q32 0 94.5 6t94.5 6q63 0 63 -61q24 -72 -184 -72q-53 0 -159.5 3.5t-161.5 3.5q-53 0 -53 54z" />
<glyph unicode="&#xb4;" horiz-adv-x="404" d="M68 1548q0 29 65 111q51 66 92 106q28 27 51 27q24 0 43 -17t19 -41q0 -36 -88 -138.5t-120 -102.5q-24 0 -43 16.5t-19 38.5z" />
<glyph unicode="&#xb6;" horiz-adv-x="1190" d="M67 739q0 314 317 486q258 140 601 140q111 0 111 -66q0 -58 -77 -58q-302 0 -529 -106q-294 -137 -294 -403q0 -177 191 -177q48 0 103 10q5 114 5 343q7 48 19 142q15 54 59 54q55 0 55 -49v-231q-17 -174 -19 -228q103 30 185 61q10 208 10 387q0 113 65 113 q59 0 59 -85q0 -198 -10 -365q17 6 33 6q54 0 54 -64q0 -53 -97 -84l-41 -529q0 -68 -19 -198q-15 -51 -54 -51q-50 0 -50 51q0 136 15 339q14 171 28 340q-94 -36 -183 -60q-3 -163 -3 -326q-14 -252 -36 -298q-17 -38 -46 -38q-58 0 -58 62q0 58 7 150q10 118 12 150 q1 44 1 275q-48 -9 -87 -9q-148 0 -237.5 84.5t-89.5 231.5z" />
<glyph unicode="&#xb7;" horiz-adv-x="473" d="M128 703q0 39 36 78.5t75 39.5q36 0 59 -33.5t23 -70.5q0 -36 -26.5 -61t-62.5 -25q-104 0 -104 72z" />
<glyph unicode="&#xbb;" horiz-adv-x="1311" d="M162 1094q0 26 21.5 46.5t48.5 20.5t113 -65q56 -43 112 -87q67 -41 198 -128q31 -23 31 -52q0 -22 -17 -51q-29 -48 -179 -201q-159 -162 -190 -162q-22 0 -37.5 18.5t-15.5 40.5q0 28 69 103q46 48 94 95q73 76 117 132q-54 32 -145 99q-70 46 -198 152q-22 22 -22 39z M623 1094q0 26 21.5 46.5t48.5 20.5t113 -65q56 -43 112 -87q67 -41 198 -128q31 -23 31 -52q0 -22 -17 -51q-29 -48 -179 -201q-159 -162 -190 -162q-22 0 -37.5 18.5t-15.5 40.5q0 28 69 103q46 48 93 95q74 76 118 132q-54 32 -145 99q-70 46 -198 152q-22 22 -22 39z " />
<glyph unicode="&#xbf;" horiz-adv-x="826" d="M55 -90q0 87 119 238q109 128 220 256q120 142 120 204q0 23 -82 32q-53 3 -104 7q-60 13 -60 60q0 68 109 68q266 0 266 -174q0 -89 -121 -241q-111 -128 -223 -256q-122 -142 -122 -203q0 -12 16 -26q53 -44 153 -44q72 0 166 26q109 30 142 76q46 36 82 36 q25 0 25 -41q0 -102 -172 -165q-133 -48 -261 -48q-104 0 -181 44q-92 53 -92 151zM350 969q0 38 33 72t71 34q58 0 58 -77q0 -34 -15 -68q-19 -41 -50 -41q-36 0 -66.5 23t-30.5 57z" />
<glyph unicode="&#xc0;" horiz-adv-x="1019" d="M38 26q0 58 181 561q112 307 223 614q11 45 45 123q19 29 36 36q12 5 49 5q24 0 39 -25q40 -65 74 -173q25 -92 51 -182q51 -168 136 -476q108 -390 108 -448q0 -25 -19 -43t-44 -18q-34 0 -51 41q-9 19 -28 121q-10 56 -68 277h-32q-77 0 -230 -16.5t-228 -16.5 q-49 -131 -141 -394q-31 -12 -62 -12q-39 0 -39 26zM174 1734q0 24 21.5 41t46.5 17q17 0 41 -15q34 -23 103 -104q73 -88 73 -117q0 -25 -21.5 -44t-46.5 -19q-26 0 -57 33q-160 170 -160 208zM326 536q53 2 205 15q130 12 207 12q-82 294 -186 603q-84 -241 -226 -630z " />
<glyph unicode="&#xc1;" horiz-adv-x="1033" d="M43 26q0 58 181 561q112 307 223 614q11 45 45 123q19 29 36 36q12 5 49 5q24 0 39 -25q40 -65 74 -173q25 -92 51 -182q51 -168 136 -476q108 -390 108 -448q0 -25 -19 -43t-44 -18q-34 0 -51 41q-9 19 -28 121q-10 56 -68 277h-32q-77 0 -230 -16.5t-228 -16.5 q-49 -131 -141 -394q-31 -12 -62 -12q-39 0 -39 26zM331 536q53 2 205 15q130 12 207 12q-82 294 -186 603q-84 -241 -226 -630zM445 1548q0 29 65 111q51 66 92 106q28 27 51 27q24 0 43 -17t19 -41q0 -36 -88 -138.5t-120 -102.5q-24 0 -43 16.5t-19 38.5z" />
<glyph unicode="&#xc2;" horiz-adv-x="1029" d="M38 26q0 58 181 561q112 307 223 614q11 45 45 123q19 29 36 36q12 5 49 5q24 0 39 -25q40 -65 74 -173q25 -92 51 -182q51 -168 136 -476q108 -390 108 -448q0 -25 -19 -43t-44 -18q-34 0 -51 41q-9 19 -28 121q-10 56 -68 277h-32q-77 0 -230 -16.5t-228 -16.5 q-49 -131 -141 -394q-31 -12 -62 -12q-39 0 -39 26zM218 1546q0 45 93 142q87 94 134 114q33 14 58 14q64 0 156 -82q68 -60 124 -137q19 -25 19 -44q0 -26 -19.5 -46t-45.5 -20q-39 0 -116 87q-90 99 -123 112l2 4q-22 -6 -99 -82q-48 -50 -97 -101q-86 0 -86 39zM326 536 q53 2 205 15q130 12 207 12q-82 294 -186 603q-84 -241 -226 -630z" />
<glyph unicode="&#xc3;" horiz-adv-x="1029" d="M38 26q0 58 181 561q112 307 223 614q11 45 45 123q19 29 36 36q12 5 49 5q24 0 39 -25q40 -65 74 -173q25 -92 51 -182q51 -168 136 -476q108 -390 108 -448q0 -25 -19 -43t-44 -18q-34 0 -51 41q-9 19 -28 121q-10 56 -68 277h-32q-77 0 -230 -16.5t-228 -16.5 q-49 -131 -141 -394q-31 -12 -62 -12q-39 0 -39 26zM195 1594q0 14 8 32q29 69 89.5 114t132.5 45q79 0 140.5 -50.5t74.5 -50.5q43 0 87.5 54t74.5 54q62 0 62 -60q0 -65 -81 -123t-150 -58q-61 0 -116.5 55.5t-91.5 55.5q-49 0 -92.5 -64t-74.5 -64q-24 0 -43.5 18 t-19.5 42zM326 536q53 2 205 15q130 12 207 12q-82 294 -186 603q-84 -241 -226 -630z" />
<glyph unicode="&#xc4;" horiz-adv-x="1033" d="M43 26q0 58 181 561q112 307 223 614q11 45 45 123q19 29 36 36q12 5 49 5q24 0 39 -25q40 -65 74 -173q25 -92 51 -182q51 -168 136 -476q108 -390 108 -448q0 -25 -19 -43t-44 -18q-34 0 -51 41q-9 19 -28 121q-10 56 -68 277h-32q-77 0 -230 -16.5t-228 -16.5 q-49 -131 -141 -394q-31 -12 -62 -12q-39 0 -39 26zM315 1591q0 34 35 73t70 39q64 0 64 -92q0 -84 -104 -84q-25 0 -45 19t-20 45zM331 536q53 2 205 15q130 12 207 12q-82 294 -186 603q-84 -241 -226 -630zM650 1615q0 92 84 92q27 0 51 -20.5t24 -48.5 q0 -39 -26.5 -69.5t-66.5 -30.5q-25 0 -45.5 25.5t-20.5 51.5z" />
<glyph unicode="&#xc5;" horiz-adv-x="1033" d="M43 26q0 58 181 561q112 307 223 614q11 45 45 123q19 29 36 36q12 5 49 5q24 0 39 -25q40 -65 74 -173q25 -92 51 -182q51 -168 136 -476q108 -390 108 -448q0 -25 -19 -43t-44 -18q-34 0 -51 41q-9 19 -28 121q-10 56 -68 277h-32q-77 0 -230 -16.5t-228 -16.5 q-49 -131 -141 -394q-31 -12 -62 -12q-39 0 -39 26zM290 1618q0 84 62 144.5t146 60.5q80 0 138 -46q63 -52 63 -130q0 -85 -60.5 -140.5t-147.5 -55.5q-77 0 -136 44q-65 50 -65 123zM331 536q53 2 205 15q130 12 207 12q-82 294 -186 603q-84 -241 -226 -630zM396 1625 q0 -34 35 -53q31 -16 67 -16q39 0 67.5 27.5t28.5 66.5q0 63 -99 63q-38 0 -68.5 -26t-30.5 -62z" />
<glyph unicode="&#xc6;" horiz-adv-x="1304" d="M51 49q0 41 270 644q140 312 201 524q9 36 34 106q17 36 57 36q41 0 124.5 3t397.5 3q102 0 102 -66q0 -55 -78 -67h-120h-172q-137 -1 -171 -1q12 -212 12 -475q58 0 177.5 1.5t179.5 1.5t60 -56q0 -49 -58 -65.5t-181 -16.5q-31 0 -90.5 2t-87.5 2q-3 -169 -3 -506 q70 7 160 7q55 0 166 -1.5t165 -1.5q57 0 57 -56q0 -67 -309 -67q-39 0 -117 1.5t-117 1.5q-131 0 -131 318q-106 -17 -318 -50q-25 -80 -94 -232q-24 -39 -58 -39q-58 0 -58 49zM319 398q161 37 263 44v573q-61 -172 -263 -617z" />
<glyph unicode="&#xc8;" horiz-adv-x="852" d="M101 128q0 196 7.5 586t7.5 586q0 65 611 65q77 -1 109 -10q53 -14 53 -58q0 -55 -53 -55q-83 0 -248 3.5t-247 3.5q-81 0 -117 2q10 -186 10 -481h213q43 0 126 1.5t125 1.5q58 0 58 -54q0 -52 -58 -64q-36 -6 -118 -6h-99q-66 1 -250 1v-536q274 12 553 12 q100 0 100 -63q0 -60 -90 -60q-91 0 -277 -1.5t-280 -1.5q-78 0 -107 24.5t-29 103.5zM247 1734q0 24 21.5 41t46.5 17q17 0 41 -15q34 -23 103 -104q73 -88 73 -117q0 -25 -21.5 -44t-46.5 -19q-26 0 -57 33q-160 170 -160 208z" />
<glyph unicode="&#xc9;" horiz-adv-x="850" d="M101 128q0 196 7.5 586t7.5 586q0 65 611 65q77 -1 109 -10q53 -14 53 -58q0 -55 -53 -55q-83 0 -248 3.5t-247 3.5q-81 0 -117 2q10 -186 10 -481h213q43 0 126 1.5t125 1.5q58 0 58 -54q0 -52 -58 -64q-36 -6 -118 -6h-99q-66 1 -250 1v-536q274 12 553 12 q100 0 100 -63q0 -60 -90 -60q-91 0 -277 -1.5t-280 -1.5q-78 0 -107 24.5t-29 103.5zM428 1548q0 29 65 111q51 66 92 106q28 27 51 27q24 0 43 -17t19 -41q0 -36 -88 -138.5t-120 -102.5q-24 0 -43 16.5t-19 38.5z" />
<glyph unicode="&#xca;" horiz-adv-x="857" d="M106 128q0 196 7.5 586t7.5 586q0 65 611 65q77 -1 109 -10q53 -14 53 -58q0 -55 -53 -55q-83 0 -248 3.5t-247 3.5q-81 0 -117 2q10 -186 10 -481h213q43 0 126 1.5t125 1.5q58 0 58 -54q0 -52 -58 -64q-36 -6 -118 -6h-99q-66 1 -250 1v-536q274 12 553 12 q100 0 100 -63q0 -60 -90 -60q-91 0 -277 -1.5t-280 -1.5q-78 0 -107 24.5t-29 103.5zM245 1546q0 45 93 142q87 94 134 114q33 14 58 14q64 0 156 -82q68 -60 124 -137q19 -25 19 -44q0 -26 -19.5 -46t-45.5 -20q-39 0 -116 87q-90 99 -123 112l2 4q-22 -6 -99 -82 q-48 -50 -97 -101q-86 0 -86 39z" />
<glyph unicode="&#xcb;" horiz-adv-x="857" d="M106 128q0 196 7.5 586t7.5 586q0 65 611 65q77 -1 109 -10q53 -14 53 -58q0 -55 -53 -55q-83 0 -248 3.5t-247 3.5q-81 0 -117 2q10 -186 10 -481h213q43 0 126 1.5t125 1.5q58 0 58 -54q0 -52 -58 -64q-36 -6 -118 -6h-99q-66 1 -250 1v-536q274 12 553 12 q100 0 100 -63q0 -60 -90 -60q-91 0 -277 -1.5t-280 -1.5q-78 0 -107 24.5t-29 103.5zM337 1591q0 34 35 73t70 39q64 0 64 -92q0 -84 -104 -84q-25 0 -45 19t-20 45zM672 1615q0 92 84 92q27 0 51 -20.5t24 -48.5q0 -39 -26.5 -69.5t-66.5 -30.5q-25 0 -45.5 25.5 t-20.5 51.5z" />
<glyph unicode="&#xcc;" horiz-adv-x="449" d="M-17 1319q0 36 45 36q6 0 20 -1.5t20 -1.5q43 0 126.5 6.5t126.5 6.5q55 0 55 -49q0 -50 -63 -65q-21 -5 -103 -9q10 -93 10 -469q4 -218 4 -654q80 -1 99 -5q53 -13 53 -61q0 -53 -263 -53q-43 0 -74 3q-30 43 -30 76q0 37 109 37q-7 159 -7 621q-3 60 -3 251 q-7 147 -7 251q-51 2 -101 12q-17 38 -17 68zM7 1734q0 24 21.5 41t46.5 17q17 0 41 -15q34 -23 103 -104q73 -88 73 -117q0 -25 -21.5 -44t-46.5 -19q-26 0 -57 33q-160 170 -160 208z" />
<glyph unicode="&#xcd;" horiz-adv-x="447" d="M-19 1319q0 36 45 36q6 0 20 -1.5t20 -1.5q43 0 126.5 6.5t126.5 6.5q55 0 55 -49q0 -50 -63 -65q-21 -5 -103 -9q10 -93 10 -469q4 -218 4 -654q80 -1 99 -5q53 -13 53 -61q0 -53 -263 -53q-43 0 -74 3q-30 43 -30 76q0 37 109 37q-7 159 -7 621q-3 60 -3 251 q-7 147 -7 251q-51 2 -101 12q-17 38 -17 68zM67 1548q0 29 65 111q51 66 92 106q28 27 51 27q24 0 43 -17t19 -41q0 -36 -88 -138.5t-120 -102.5q-24 0 -43 16.5t-19 38.5z" />
<glyph unicode="&#xce;" horiz-adv-x="657" d="M141 1546q0 45 93 142q87 94 134 114q33 14 58 14q64 0 156 -82q68 -60 124 -137q19 -25 19 -44q0 -26 -19.5 -46t-45.5 -20q-39 0 -116 87q-90 99 -123 112l2 4q-22 -6 -99 -82q-48 -50 -97 -101q-86 0 -86 39zM176 1319q0 36 45 36q6 0 20 -1.5t20 -1.5q43 0 126.5 6.5 t126.5 6.5q55 0 55 -49q0 -50 -63 -65q-21 -5 -103 -9q10 -93 10 -469q4 -218 4 -654q80 -1 99 -5q53 -13 53 -61q0 -53 -263 -53q-43 0 -74 3q-30 43 -30 76q0 37 109 37q-7 159 -7 621q-3 60 -3 251q-7 147 -7 251q-51 2 -101 12q-17 38 -17 68z" />
<glyph unicode="&#xcf;" horiz-adv-x="601" d="M131 1319q0 36 45 36q6 0 20 -1.5t20 -1.5q43 0 126.5 6.5t126.5 6.5q55 0 55 -49q0 -50 -63 -65q-21 -5 -103 -9q10 -93 10 -469q4 -218 4 -654q80 -1 99 -5q53 -13 53 -61q0 -53 -263 -53q-43 0 -74 3q-30 43 -30 76q0 37 109 37q-7 159 -7 621q-3 60 -3 251 q-7 147 -7 251q-51 2 -101 12q-17 38 -17 68zM206 1591q0 34 35 73t70 39q64 0 64 -92q0 -84 -104 -84q-25 0 -45 19t-20 45zM541 1615q0 92 84 92q27 0 51 -20.5t24 -48.5q0 -39 -26.5 -69.5t-66.5 -30.5q-25 0 -45.5 25.5t-20.5 51.5z" />
<glyph unicode="&#xd1;" horiz-adv-x="1106" d="M65 1229q0 109 24 124q7 6 48 6q27 0 39 -12q92 -87 215 -297q41 -69 181 -328q121 -225 247 -475v564q0 85 -4 257.5t-4 257.5q0 15 30 29q24 10 43 10q21 0 29 -29q21 -70 21 -310v-970q0 -56 -87 -56q-24 0 -47 27q-29 36 -58 99q-23 53 -47 106q-246 510 -509 917 q2 -110 2 -931q0 -18 2.5 -54t2.5 -55q0 -109 -63 -109q-57 0 -57 794q2 73 -3 217t-5 218zM249 1594q0 14 8 32q29 69 89.5 114t132.5 45q79 0 140.5 -50.5t74.5 -50.5q43 0 87.5 54t74.5 54q62 0 62 -60q0 -65 -81 -123t-150 -58q-61 0 -116.5 55.5t-91.5 55.5 q-49 0 -92.5 -64t-74.5 -64q-24 0 -43.5 18t-19.5 42z" />
<glyph unicode="&#xd2;" horiz-adv-x="1070" d="M9 592q0 272 107 493q135 280 376 280q232 0 363 -249q106 -201 106 -457q0 -255 -111 -439q-131 -220 -368 -220q-236 0 -362 186q-111 160 -111 406zM127 602q0 -211 81 -334q98 -145 299 -145q162 0 253 194q71 156 71 338q0 173 -49 316q-65 183 -191 244 q-53 26 -86 26q-61 0 -134 -38q-134 -68 -197 -263q-47 -150 -47 -338zM259 1737q0 24 21.5 41t46.5 17q17 0 41 -15q34 -23 103 -104q73 -88 73 -117q0 -25 -21.5 -44t-46.5 -19q-26 0 -57 33q-160 170 -160 208z" />
<glyph unicode="&#xd3;" horiz-adv-x="1070" d="M9 592q0 272 107 493q135 280 376 280q232 0 363 -249q106 -201 106 -457q0 -255 -111 -439q-131 -220 -368 -220q-236 0 -362 186q-111 160 -111 406zM127 602q0 -211 81 -334q98 -145 299 -145q162 0 253 194q71 156 71 338q0 173 -49 316q-65 183 -191 244 q-53 26 -86 26q-61 0 -134 -38q-134 -68 -197 -263q-47 -150 -47 -338zM420 1548q0 29 65 111q51 66 92 106q28 27 51 27q24 0 43 -17t19 -41q0 -36 -88 -138.5t-120 -102.5q-24 0 -43 16.5t-19 38.5z" />
<glyph unicode="&#xd4;" horiz-adv-x="1067" d="M6 592q0 272 107 493q135 280 376 280q232 0 363 -249q106 -201 106 -457q0 -255 -111 -439q-131 -220 -368 -220q-236 0 -362 186q-111 160 -111 406zM124 602q0 -211 81 -334q98 -145 299 -145q162 0 253 194q71 156 71 338q0 173 -49 316q-65 183 -191 244 q-53 26 -86 26q-61 0 -134 -38q-134 -68 -197 -263q-47 -150 -47 -338zM245 1546q0 45 93 142q87 94 134 114q33 14 58 14q64 0 156 -82q68 -60 124 -137q19 -25 19 -44q0 -26 -19.5 -46t-45.5 -20q-39 0 -116 87q-90 99 -123 112l2 4q-22 -6 -99 -82q-48 -50 -97 -101 q-86 0 -86 39z" />
<glyph unicode="&#xd5;" horiz-adv-x="1070" d="M9 592q0 272 107 493q135 280 376 280q232 0 363 -249q106 -201 106 -457q0 -255 -111 -439q-131 -220 -368 -220q-236 0 -362 186q-111 160 -111 406zM127 602q0 -211 81 -334q98 -145 299 -145q162 0 253 194q71 156 71 338q0 173 -49 316q-65 183 -191 244 q-53 26 -86 26q-61 0 -134 -38q-134 -68 -197 -263q-47 -150 -47 -338zM243 1594q0 14 8 32q29 69 89.5 114t132.5 45q79 0 140.5 -50.5t74.5 -50.5q43 0 87.5 54t74.5 54q62 0 62 -60q0 -65 -81 -123t-150 -58q-61 0 -116.5 55.5t-91.5 55.5q-49 0 -92.5 -64t-74.5 -64 q-24 0 -43.5 18t-19.5 42z" />
<glyph unicode="&#xd6;" horiz-adv-x="1075" d="M14 592q0 272 107 493q135 280 376 280q232 0 363 -249q106 -201 106 -457q0 -255 -111 -439q-131 -220 -368 -220q-236 0 -362 186q-111 160 -111 406zM132 602q0 -211 81 -334q98 -145 299 -145q162 0 253 194q71 156 71 338q0 173 -49 316q-65 183 -191 244 q-53 26 -86 26q-61 0 -134 -38q-134 -68 -197 -263q-47 -150 -47 -338zM346 1591q0 34 35 73t70 39q64 0 64 -92q0 -84 -104 -84q-25 0 -45 19t-20 45zM681 1615q0 92 84 92q27 0 51 -20.5t24 -48.5q0 -39 -26.5 -69.5t-66.5 -30.5q-25 0 -45.5 25.5t-20.5 51.5z" />
<glyph unicode="&#xd7;" horiz-adv-x="763" d="M106 884q0 26 18.5 47t44.5 21q39 0 177 -135q130 156 185 156q24 0 42 -19.5t18 -43.5q0 -19 -16 -40q-24 -30 -72 -71q-59 -50 -76 -67q138 -153 138 -188q0 -25 -21.5 -44.5t-46.5 -19.5q-29 0 -86 63q-37 46 -75 90q-107 -128 -133 -128q-53 0 -53 55q0 17 113 153 q-46 41 -91 82q-66 63 -66 89z" />
<glyph unicode="&#xd8;" horiz-adv-x="1044" d="M46 592q0 272 108 493q134 280 375 280q77 0 147 -30q19 17 46 17q63 0 63 -60q0 -10 -3 -27q107 -101 165 -280q51 -159 51 -326q0 -255 -111 -439q-131 -220 -368 -220q-72 0 -137 19q-17 -33 -56 -33q-63 0 -63 57q0 12 5 29q-222 152 -222 520zM164 602 q0 -283 143 -402q55 164 254 802q18 73 57 217q-51 22 -75 22q-62 0 -132 -36q-136 -70 -199 -263q-48 -148 -48 -340zM430 137q53 -14 114 -14q163 0 253 194q72 156 72 338q0 294 -128 465q-140 -429 -311 -983z" />
<glyph unicode="&#xd9;" horiz-adv-x="1060" d="M30 698q0 123 13 314q19 258 23 314q42 31 78 31q24 0 24 -31q0 -97 -8.5 -292.5t-8.5 -292.5q0 -613 259 -613q360 0 360 823q0 59 -3 177t-3 178q0 59 58 59q46 0 66 -59q16 -43 16 -277q0 -1027 -489 -1027q-385 0 -385 696zM242 1734q0 24 21.5 41t46.5 17 q17 0 41 -15q34 -23 103 -104q73 -88 73 -117q0 -25 -21.5 -44t-46.5 -19q-26 0 -57 33q-160 170 -160 208z" />
<glyph unicode="&#xda;" horiz-adv-x="1062" d="M31 698q0 123 13 314q19 258 23 314q42 31 78 31q24 0 24 -31q0 -97 -8.5 -292.5t-8.5 -292.5q0 -613 259 -613q360 0 360 823q0 59 -3 177t-3 178q0 59 58 59q46 0 66 -59q16 -43 16 -277q0 -1027 -489 -1027q-385 0 -385 696zM425 1548q0 29 65 111q51 66 92 106 q28 27 51 27q24 0 43 -17t19 -41q0 -36 -88 -138.5t-120 -102.5q-24 0 -43 16.5t-19 38.5z" />
<glyph unicode="&#xdb;" horiz-adv-x="1062" d="M31 698q0 123 13 314q19 258 23 314q42 31 78 31q24 0 24 -31q0 -97 -8.5 -292.5t-8.5 -292.5q0 -613 259 -613q360 0 360 823q0 59 -3 177t-3 178q0 59 58 59q46 0 66 -59q16 -43 16 -277q0 -1027 -489 -1027q-385 0 -385 696zM237 1546q0 45 93 142q87 94 134 114 q33 14 58 14q64 0 156 -82q68 -60 124 -137q19 -25 19 -44q0 -26 -19.5 -46t-45.5 -20q-39 0 -116 87q-90 99 -123 112l2 4q-22 -6 -99 -82q-48 -50 -97 -101q-86 0 -86 39z" />
<glyph unicode="&#xdc;" horiz-adv-x="1062" d="M31 698q0 123 13 314q19 258 23 314q42 31 78 31q24 0 24 -31q0 -97 -8.5 -292.5t-8.5 -292.5q0 -613 259 -613q360 0 360 823q0 59 -3 177t-3 178q0 59 58 59q46 0 66 -59q16 -43 16 -277q0 -1027 -489 -1027q-385 0 -385 696zM346 1591q0 34 35 73t70 39q64 0 64 -92 q0 -84 -104 -84q-25 0 -45 19t-20 45zM681 1615q0 92 84 92q27 0 51 -20.5t24 -48.5q0 -39 -26.5 -69.5t-66.5 -30.5q-25 0 -45.5 25.5t-20.5 51.5z" />
<glyph unicode="&#xdd;" horiz-adv-x="918" d="M31 1292q31 70 65 70q21 0 73 -84q33 -53 309 -476q96 116 270 357q32 61 111 177q24 29 48 29q25 0 45 -18t20 -43q0 -53 -190 -318q-121 -163 -244 -327q9 -248 9 -466q0 -89 -9 -164q-37 -29 -73 -29q-43 0 -43 142q0 34 1.5 101.5t1.5 101.5v307q-204 278 -394 640z M384 1548q0 29 65 111q51 66 92 106q28 27 51 27q24 0 43 -17t19 -41q0 -36 -88 -138.5t-120 -102.5q-24 0 -43 16.5t-19 38.5z" />
<glyph unicode="&#xde;" horiz-adv-x="1147" d="M133 1075q0 33 114 46v106q0 138 64 138q53 0 53 -56v-179h25q285 0 485 -111q246 -137 246 -399q0 -210 -202 -313q-157 -82 -387 -82q-98 0 -181 14q0 -17 -2 -73v-74q0 -92 -58 -92q-54 0 -54 53q0 37 2.5 108t2.5 105q-72 16 -72 72q0 29 21.5 47.5t50.5 12.5 q1 203 1 607q-35 -3 -71 -7q-38 45 -38 77zM350 370q77 -12 164 -12q179 0 298 45q176 63 176 210q0 218 -220 321q-164 76 -411 76q-7 -273 -7 -640z" />
<glyph unicode="&#xdf;" horiz-adv-x="1109" d="M189 -234q0 21 11 179q17 263 17 401q0 149 -9.5 447t-9.5 446q0 126 99 126q235 0 430 -97q241 -121 241 -333q0 -164 -197 -239q120 -44 197 -121q92 -90 92 -203q0 -196 -202 -295q-157 -77 -377 -77q-25 0 -53.5 17t-28.5 41q0 58 74 58q167 0 288 46q169 67 169 207 q0 114 -130 187q-97 55 -232 74q-42 1 -124 17q-46 13 -46 56q0 26 17 46.5t41 20.5q129 0 233 32q152 48 152 147q0 203 -378 275q-74 13 -110 13t-36 -109q7 -12 7 -171q19 -361 19 -646q0 -357 -39 -535q-17 -73 -62 -73q-53 0 -53 63z" />
<glyph unicode="&#xe0;" horiz-adv-x="896" d="M31 393q0 168 128.5 297t297.5 129q89 0 169 -39q12 49 60 49q67 0 67 -143q0 -75 -6 -222.5t-6 -222.5q0 -93 12 -174q-46 -53 -79 -53q-29 0 -36 88q-129 -102 -276 -102q-157 0 -249 121q-82 109 -82 272zM165 382q0 -97 47 -167q52 -80 145 -80q140 0 266 130v182 q7 128 7 183q-24 5 -86 34q-47 22 -90 22q-118 0 -203.5 -93t-85.5 -211zM198 1224q0 24 21.5 41t46.5 17q17 0 41 -15q34 -23 103 -104q73 -88 73 -117q0 -25 -21.5 -44t-46.5 -19q-26 0 -57 33q-160 170 -160 208z" />
<glyph unicode="&#xe1;" horiz-adv-x="869" d="M2 393q0 168 128.5 297t297.5 129q89 0 169 -39q12 49 60 49q67 0 67 -143q0 -75 -6 -222.5t-6 -222.5q0 -93 12 -174q-46 -53 -79 -53q-29 0 -36 88q-129 -102 -276 -102q-157 0 -249 121q-82 109 -82 272zM136 382q0 -97 47 -167q52 -80 145 -80q140 0 266 130v182 q7 128 7 183q-24 5 -86 34q-47 22 -90 22q-118 0 -203.5 -93t-85.5 -211zM350 1038q0 29 65 111q51 66 92 106q28 27 51 27q24 0 43 -17t19 -41q0 -36 -88 -138.5t-120 -102.5q-24 0 -43 16.5t-19 38.5z" />
<glyph unicode="&#xe2;" horiz-adv-x="893" d="M23 393q0 168 128.5 297t297.5 129q89 0 169 -39q12 49 60 49q67 0 67 -143q0 -75 -6 -222.5t-6 -222.5q0 -93 12 -174q-46 -53 -79 -53q-29 0 -36 88q-129 -102 -276 -102q-157 0 -249 121q-82 109 -82 272zM157 382q0 -97 47 -167q52 -80 145 -80q140 0 266 130v182 q7 128 7 183q-24 5 -86 34q-47 22 -90 22q-118 0 -203.5 -93t-85.5 -211zM165 1036q0 45 93 142q87 94 134 114q33 14 58 14q64 0 156 -82q68 -60 124 -137q19 -25 19 -44q0 -26 -19.5 -46t-45.5 -20q-39 0 -116 87q-90 99 -123 112l2 4q-22 -6 -99 -82q-48 -50 -97 -101 q-86 0 -86 39z" />
<glyph unicode="&#xe3;" horiz-adv-x="881" d="M23 393q0 168 128.5 297t297.5 129q89 0 169 -39q12 49 60 49q67 0 67 -143q0 -75 -6 -222.5t-6 -222.5q0 -93 12 -174q-46 -53 -79 -53q-29 0 -36 88q-129 -102 -276 -102q-157 0 -249 121q-82 109 -82 272zM157 382q0 -97 47 -167q52 -80 145 -80q140 0 266 130v182 q7 128 7 183q-24 5 -86 34q-47 22 -90 22q-118 0 -203.5 -93t-85.5 -211zM159 1084q0 14 8 32q29 69 89.5 114t132.5 45q79 0 140.5 -50.5t74.5 -50.5q43 0 87.5 54t74.5 54q62 0 62 -60q0 -65 -81 -123t-150 -58q-61 0 -116.5 55.5t-91.5 55.5q-49 0 -92.5 -64t-74.5 -64 q-24 0 -43.5 18t-19.5 42z" />
<glyph unicode="&#xe4;" horiz-adv-x="872" d="M2 393q0 168 128.5 297t297.5 129q89 0 169 -39q12 49 60 49q67 0 67 -143q0 -75 -6 -222.5t-6 -222.5q0 -93 12 -174q-46 -53 -79 -53q-29 0 -36 88q-129 -102 -276 -102q-157 0 -249 121q-82 109 -82 272zM136 382q0 -97 47 -167q52 -80 145 -80q140 0 266 130v182 q7 128 7 183q-24 5 -86 34q-47 22 -90 22q-118 0 -203.5 -93t-85.5 -211zM237 1081q0 34 35 73t70 39q64 0 64 -92q0 -84 -104 -84q-25 0 -45 19t-20 45zM572 1105q0 92 84 92q27 0 51 -20.5t24 -48.5q0 -39 -26.5 -69.5t-66.5 -30.5q-25 0 -45.5 25.5t-20.5 51.5z" />
<glyph unicode="&#xe5;" horiz-adv-x="870" d="M2 393q0 168 128.5 297t297.5 129q89 0 169 -39q12 49 60 49q67 0 67 -143q0 -75 -6 -222.5t-6 -222.5q0 -93 12 -174q-46 -53 -79 -53q-29 0 -36 88q-129 -102 -276 -102q-157 0 -249 121q-82 109 -82 272zM136 382q0 -97 47 -167q52 -80 145 -80q140 0 266 130v182 q7 128 7 183q-24 5 -86 34q-47 22 -90 22q-118 0 -203.5 -93t-85.5 -211zM212 1108q0 84 62 144.5t146 60.5q80 0 138 -46q63 -52 63 -130q0 -85 -60.5 -140.5t-147.5 -55.5q-77 0 -136 44q-65 50 -65 123zM318 1115q0 -34 35 -53q31 -16 67 -16q39 0 67.5 27.5t28.5 66.5 q0 63 -99 63q-38 0 -68.5 -26t-30.5 -62z" />
<glyph unicode="&#xe6;" horiz-adv-x="1434" d="M53 387q0 169 128 296.5t297 127.5q90 0 171 -40q11 50 59 50q67 0 67 -138q114 131 263 131q112 0 207 -110t95 -224q0 -43 -58 -60q-86 -26 -263 -26q-162 0 -231 5v-8q0 -108 78 -186.5t185 -78.5q69 0 163.5 55t104.5 55q26 0 46.5 -19t20.5 -45q0 -18 -19 -42 q-46 -58 -140.5 -97.5t-175.5 -39.5q-164 0 -283 130q7 -51 7 -75q0 -55 -58 -55q-48 0 -57 101q-128 -101 -276 -101q-159 0 -249 121q-82 110 -82 273zM188 375q0 -97 46 -167q53 -82 145 -82q116 0 266 130v183q7 129 7 182q-27 5 -80 34q-43 24 -96 24q-118 0 -203 -93 t-85 -211zM819 509q125 3 382 23q-54 152 -168 152q-64 0 -128 -59q-53 -50 -86 -116z" />
<glyph unicode="&#xe8;" horiz-adv-x="763" d="M-16 396q0 157 109 287q116 138 270 138q107 0 189 -91q70 -76 102 -191q11 -36 11 -53q0 -42 -58 -59q-84 -26 -328 -26q-96 0 -164 5q0 -111 76 -192t185 -81q65 0 159 53t109 53q26 0 46.5 -17t20.5 -43q0 -19 -19 -42q-44 -58 -143 -99q-93 -38 -173 -38 q-159 0 -275.5 118.5t-116.5 277.5zM116 1224q0 24 21.5 41t46.5 17q17 0 41 -15q34 -23 103 -104q73 -88 73 -117q0 -25 -21.5 -44t-46.5 -19q-26 0 -57 33q-160 170 -160 208zM144 514q101 1 382 25q-54 152 -169 152q-63 0 -128 -60q-52 -49 -85 -117z" />
<glyph unicode="&#xe9;" horiz-adv-x="770" d="M-15 396q0 157 109 287q116 138 270 138q107 0 189 -91q70 -76 102 -191q11 -36 11 -53q0 -42 -58 -59q-84 -26 -328 -26q-96 0 -164 5q0 -111 76 -192t185 -81q65 0 159 53t109 53q26 0 46.5 -17t20.5 -43q0 -19 -19 -42q-44 -58 -143 -99q-93 -38 -173 -38 q-159 0 -275.5 118.5t-116.5 277.5zM145 514q101 1 382 25q-54 152 -169 152q-63 0 -128 -60q-52 -49 -85 -117zM315 1038q0 29 65 111q51 66 92 106q28 27 51 27q24 0 43 -17t19 -41q0 -36 -88 -138.5t-120 -102.5q-24 0 -43 16.5t-19 38.5z" />
<glyph unicode="&#xea;" horiz-adv-x="768" d="M-15 396q0 157 109 287q116 138 270 138q107 0 189 -91q70 -76 102 -191q11 -36 11 -53q0 -42 -58 -59q-84 -26 -328 -26q-96 0 -164 5q0 -111 76 -192t185 -81q65 0 159 53t109 53q26 0 46.5 -17t20.5 -43q0 -19 -19 -42q-44 -58 -143 -99q-93 -38 -173 -38 q-159 0 -275.5 118.5t-116.5 277.5zM111 1036q0 45 93 142q87 94 134 114q33 14 58 14q64 0 156 -82q68 -60 124 -137q19 -25 19 -44q0 -26 -19.5 -46t-45.5 -20q-39 0 -116 87q-90 99 -123 112l2 4q-22 -6 -99 -82q-48 -50 -97 -101q-86 0 -86 39zM145 514q101 1 382 25 q-54 152 -169 152q-63 0 -128 -60q-52 -49 -85 -117z" />
<glyph unicode="&#xeb;" horiz-adv-x="768" d="M-10 396q0 157 109 287q116 138 270 138q107 0 189 -91q70 -76 102 -191q11 -36 11 -53q0 -42 -58 -59q-84 -26 -328 -26q-96 0 -164 5q0 -111 76 -192t185 -81q65 0 159 53t109 53q26 0 46.5 -17t20.5 -43q0 -19 -19 -42q-44 -58 -143 -99q-93 -38 -173 -38 q-159 0 -275.5 118.5t-116.5 277.5zM150 514q101 1 382 25q-54 152 -169 152q-63 0 -128 -60q-52 -49 -85 -117zM225 1081q0 34 35 73t70 39q64 0 64 -92q0 -84 -104 -84q-25 0 -45 19t-20 45zM560 1105q0 92 84 92q27 0 51 -20.5t24 -48.5q0 -39 -26.5 -69.5t-66.5 -30.5 q-25 0 -45.5 25.5t-20.5 51.5z" />
<glyph unicode="&#xec;" horiz-adv-x="505" d="M102 1224q0 24 21.5 41t46.5 17q17 0 41 -15q34 -23 103 -104q73 -88 73 -117q0 -25 -21.5 -44t-46.5 -19q-26 0 -57 33q-160 170 -160 208zM324 55v169q9 121 9 358q0 113 14.5 166.5t60.5 53.5q53 0 53 -56v-186q-10 -137 -12 -185q-2 -90 -2 -179q-5 -104 -18 -179 q-38 -17 -65 -17q-40 0 -40 55z" />
<glyph unicode="&#xed;" horiz-adv-x="331" d="M14 1038q0 29 65 111q51 66 92 106q28 27 51 27q24 0 43 -17t19 -41q0 -36 -88 -138.5t-120 -102.5q-24 0 -43 16.5t-19 38.5zM106 55v169q9 121 9 358q0 113 14.5 166.5t60.5 53.5q53 0 53 -56v-186q-10 -137 -12 -185q-2 -90 -2 -179q-5 -104 -18 -179q-38 -17 -65 -17 q-40 0 -40 55z" />
<glyph unicode="&#xee;" horiz-adv-x="657" d="M131 1036q0 45 93 142q87 94 134 114q33 14 58 14q64 0 156 -82q68 -60 124 -137q19 -25 19 -44q0 -26 -19.5 -46t-45.5 -20q-39 0 -116 87q-90 99 -123 112l2 4q-22 -6 -99 -82q-48 -50 -97 -101q-86 0 -86 39zM394 55v169q9 121 9 358q0 113 14.5 166.5t60.5 53.5 q53 0 53 -56v-186q-10 -137 -12 -185q-2 -90 -2 -179q-5 -104 -18 -179q-38 -17 -65 -17q-40 0 -40 55z" />
<glyph unicode="&#xef;" horiz-adv-x="599" d="M194 1081q0 34 35 73t70 39q64 0 64 -92q0 -84 -104 -84q-25 0 -45 19t-20 45zM365 55v169q9 121 9 358q0 113 14.5 166.5t60.5 53.5q53 0 53 -56v-186q-10 -137 -12 -185q-2 -90 -2 -179q-5 -104 -18 -179q-38 -17 -65 -17q-40 0 -40 55zM529 1105q0 92 84 92 q27 0 51 -20.5t24 -48.5q0 -39 -26.5 -69.5t-66.5 -30.5q-25 0 -45.5 25.5t-20.5 51.5z" />
<glyph unicode="&#xf1;" horiz-adv-x="795" d="M43 80v340q4 121 4 362q49 29 81 29q35 0 33 -67q92 80 213 80q297 0 297 -401q0 -59 -9.5 -178.5t-9.5 -179.5q0 -26 -17 -44.5t-42 -18.5q-65 0 -65 123q0 51 7.5 150.5t7.5 151.5q0 276 -174 276q-133 0 -205 -131v-456q0 -116 -63 -116q-58 0 -58 80zM110 1084 q0 14 8 32q29 69 89.5 114t132.5 45q79 0 140.5 -50.5t74.5 -50.5q43 0 87.5 54t74.5 54q62 0 62 -60q0 -65 -81 -123t-150 -58q-61 0 -116.5 55.5t-91.5 55.5q-49 0 -92.5 -64t-74.5 -64q-24 0 -43.5 18t-19.5 42z" />
<glyph unicode="&#xf2;" horiz-adv-x="765" d="M2 377q0 174 82 302q96 149 259 149q154 0 243 -130q77 -114 77 -275q0 -170 -81 -288q-92 -135 -254 -135q-152 0 -242 114q-84 106 -84 263zM123 391q0 -266 212 -266q101 0 157 104q46 83 46 194q0 101 -48 183q-54 97 -148 97q-219 0 -219 -312zM148 1224 q0 24 21.5 41t46.5 17q17 0 41 -15q34 -23 103 -104q73 -88 73 -117q0 -25 -21.5 -44t-46.5 -19q-26 0 -57 33q-160 170 -160 208z" />
<glyph unicode="&#xf3;" horiz-adv-x="756" d="M2 377q0 174 82 302q96 149 259 149q154 0 243 -130q77 -114 77 -275q0 -170 -81 -288q-92 -135 -254 -135q-152 0 -242 114q-84 106 -84 263zM123 391q0 -266 212 -266q101 0 157 104q46 83 46 194q0 101 -48 183q-54 97 -148 97q-219 0 -219 -312zM295 1038 q0 29 65 111q51 66 92 106q28 27 51 27q24 0 43 -17t19 -41q0 -36 -88 -138.5t-120 -102.5q-24 0 -43 16.5t-19 38.5z" />
<glyph unicode="&#xf4;" horiz-adv-x="766" d="M9 377q0 174 82 302q96 149 259 149q154 0 243 -130q77 -114 77 -275q0 -170 -81 -288q-92 -135 -254 -135q-152 0 -242 114q-84 106 -84 263zM114 1036q0 45 93 142q87 94 134 114q33 14 58 14q64 0 156 -82q68 -60 124 -137q19 -25 19 -44q0 -26 -19.5 -46t-45.5 -20 q-39 0 -116 87q-90 99 -123 112l2 4q-22 -6 -99 -82q-48 -50 -97 -101q-86 0 -86 39zM130 391q0 -266 212 -266q101 0 157 104q46 83 46 194q0 101 -48 183q-54 97 -148 97q-219 0 -219 -312z" />
<glyph unicode="&#xf5;" horiz-adv-x="777" d="M9 377q0 174 82 302q96 149 259 149q154 0 243 -130q77 -114 77 -275q0 -170 -81 -288q-92 -135 -254 -135q-152 0 -242 114q-84 106 -84 263zM110 1084q0 14 8 32q29 69 89.5 114t132.5 45q79 0 140.5 -50.5t74.5 -50.5q43 0 87.5 54t74.5 54q62 0 62 -60 q0 -65 -81 -123t-150 -58q-61 0 -116.5 55.5t-91.5 55.5q-49 0 -92.5 -64t-74.5 -64q-24 0 -43.5 18t-19.5 42zM130 391q0 -266 212 -266q101 0 157 104q46 83 46 194q0 101 -48 183q-54 97 -148 97q-219 0 -219 -312z" />
<glyph unicode="&#xf6;" horiz-adv-x="748" d="M4 377q0 174 82 302q96 149 259 149q154 0 243 -130q77 -114 77 -275q0 -170 -81 -288q-92 -135 -254 -135q-152 0 -242 114q-84 106 -84 263zM125 391q0 -266 212 -266q101 0 157 104q46 83 46 194q0 101 -48 183q-54 97 -148 97q-219 0 -219 -312zM201 1081q0 34 35 73 t70 39q64 0 64 -92q0 -84 -104 -84q-25 0 -45 19t-20 45zM536 1105q0 92 84 92q27 0 51 -20.5t24 -48.5q0 -39 -26.5 -69.5t-66.5 -30.5q-25 0 -45.5 25.5t-20.5 51.5z" />
<glyph unicode="&#xf7;" horiz-adv-x="604" d="M44 666q0 34 37.5 46.5t215.5 12.5q32 0 94.5 6t94.5 6q64 0 64 -61q0 -72 -185 -72q-44 0 -133 3.5t-133 3.5q-55 0 -55 55zM207 908q0 43 24.5 77t65.5 34q38 0 62.5 -26.5t24.5 -64.5q0 -35 -34 -69.5t-70 -34.5q-31 0 -52 26.5t-21 57.5zM218 437q0 37 30 75.5 t66 38.5t67.5 -27t31.5 -63q0 -38 -38.5 -62.5t-77.5 -24.5q-79 0 -79 63z" />
<glyph unicode="&#xf8;" horiz-adv-x="751" d="M43 377q0 174 82 302q95 149 259 149q60 0 108 -19q25 65 73 65q20 0 43 -13.5t23 -34.5q0 -10 -39 -87q111 -118 111 -316q0 -169 -80 -288q-92 -135 -254 -135q-69 0 -128 26q-21 -40 -60 -40q-21 0 -44 13t-23 32q0 10 29 63q-100 107 -100 283zM164 391 q0 -108 39 -176q80 159 236 478q-28 10 -57 10q-218 0 -218 -312zM299 137q36 -12 76 -12q101 0 157 104q47 83 47 194q0 103 -50 186q-75 -158 -230 -472z" />
<glyph unicode="&#xf9;" horiz-adv-x="853" d="M41 596q0 141 18.5 185.5t59.5 44.5q69 0 69 -63q0 -39 -6 -119.5t-6 -119.5q0 -142 32 -244q48 -154 155 -154q94 0 163 96q59 83 68 184q3 45 3 191q-1 118 14 190q37 22 72 22q34 0 34 -85q0 -26 -2 -79v-363q0 -38 1.5 -113t1.5 -113q0 -56 -56 -56q-46 0 -58 48 q-5 19 -5 83q-94 -131 -237 -131q-321 0 -321 596zM181 1224q0 24 21.5 41t46.5 17q17 0 41 -15q34 -23 103 -104q73 -88 73 -117q0 -25 -21.5 -44t-46.5 -19q-26 0 -57 33q-160 170 -160 208z" />
<glyph unicode="&#xfa;" horiz-adv-x="845" d="M35 596q0 141 18.5 185.5t59.5 44.5q69 0 69 -63q0 -39 -6 -119.5t-6 -119.5q0 -142 32 -244q48 -154 155 -154q94 0 163 96q59 83 68 184q3 45 3 191q-1 118 14 190q37 22 72 22q34 0 34 -85q0 -26 -2 -79v-363q0 -38 1.5 -113t1.5 -113q0 -56 -56 -56q-46 0 -58 48 q-5 19 -5 83q-94 -131 -237 -131q-321 0 -321 596zM304 1038q0 29 65 111q51 66 92 106q28 27 51 27q24 0 43 -17t19 -41q0 -36 -88 -138.5t-120 -102.5q-24 0 -43 16.5t-19 38.5z" />
<glyph unicode="&#xfb;" horiz-adv-x="845" d="M28 596q0 141 18.5 185.5t59.5 44.5q69 0 69 -63q0 -39 -6 -119.5t-6 -119.5q0 -142 32 -244q48 -154 155 -154q94 0 163 96q59 83 68 184q3 45 3 191q-1 118 14 190q37 22 72 22q34 0 34 -85q0 -26 -2 -79v-363q0 -38 1.5 -113t1.5 -113q0 -56 -56 -56q-46 0 -58 48 q-5 19 -5 83q-94 -131 -237 -131q-321 0 -321 596zM143 1036q0 45 93 142q87 94 134 114q33 14 58 14q64 0 156 -82q68 -60 124 -137q19 -25 19 -44q0 -26 -19.5 -46t-45.5 -20q-39 0 -116 87q-90 99 -123 112l2 4q-22 -6 -99 -82q-48 -50 -97 -101q-86 0 -86 39z" />
<glyph unicode="&#xfc;" horiz-adv-x="829" d="M14 596q0 141 18.5 185.5t59.5 44.5q69 0 69 -63q0 -39 -6 -119.5t-6 -119.5q0 -142 32 -244q48 -154 155 -154q94 0 163 96q59 83 68 184q3 45 3 191q-1 118 14 190q37 22 72 22q34 0 34 -85q0 -26 -2 -79v-363q0 -38 1.5 -113t1.5 -113q0 -56 -56 -56q-46 0 -58 48 q-5 19 -5 83q-94 -131 -237 -131q-321 0 -321 596zM221 1081q0 34 35 73t70 39q64 0 64 -92q0 -84 -104 -84q-25 0 -45 19t-20 45zM556 1105q0 92 84 92q27 0 51 -20.5t24 -48.5q0 -39 -26.5 -69.5t-66.5 -30.5q-25 0 -45.5 25.5t-20.5 51.5z" />
<glyph unicode="&#xfd;" horiz-adv-x="802" d="M20 761q38 56 72 56q12 0 22 -13q22 -31 79 -169q65 -143 189 -430q111 222 186 409q21 62 77 176q20 29 46 29q24 0 45.5 -17t21.5 -41q0 -3 -5 -17q-106 -266 -250 -558q-162 -331 -291 -531h-9q-89 0 -89 36q0 5 193 369q-72 177 -222 529q-27 56 -65 172zM264 1038 q0 29 65 111q51 66 92 106q28 27 51 27q24 0 43 -17t19 -41q0 -36 -88 -138.5t-120 -102.5q-24 0 -43 16.5t-19 38.5z" />
<glyph unicode="&#xfe;" horiz-adv-x="1145" d="M131 850q0 32 115 46v106q0 138 63 138q53 0 53 -56v-179h25q285 0 485 -111q246 -137 246 -400q0 -210 -202 -312q-157 -82 -387 -82q-97 0 -181 14q0 -17 -2 -74v-73q0 -92 -58 -92q-54 0 -54 53q0 37 2.5 108t2.5 105q-72 15 -72 72q0 29 21.5 47.5t50.5 11.5 q2 203 2 608q-36 -3 -72 -7q-38 44 -38 77zM348 145q77 -12 164 -12q179 0 299 44q175 64 175 210q0 219 -220 321q-164 77 -411 77q-7 -273 -7 -640z" />
<glyph unicode="&#xff;" horiz-adv-x="797" d="M19 761q38 56 72 56q12 0 22 -13q22 -31 79 -169q65 -143 189 -430q111 222 186 409q21 62 77 176q20 29 46 29q24 0 45.5 -17t21.5 -41q0 -3 -5 -17q-106 -266 -250 -558q-162 -331 -291 -531h-9q-89 0 -89 36q0 5 193 369q-72 177 -222 529q-27 56 -65 172zM201 1081 q0 34 35 73t70 39q64 0 64 -92q0 -84 -104 -84q-25 0 -45 19t-20 45zM536 1105q0 92 84 92q27 0 51 -20.5t24 -48.5q0 -39 -26.5 -69.5t-66.5 -30.5q-25 0 -45.5 25.5t-20.5 51.5z" />
<glyph unicode="&#x152;" horiz-adv-x="1814" d="M172 589q0 258 87 476q116 290 333 290q130 0 231 -113q82 -90 126 -232v289q0 66 157 66q37 0 110.5 -1.5t111.5 -1.5q22 0 68 1.5t68 1.5q84 0 127 -10q54 -14 54 -60q0 -53 -54 -53q-72 0 -213.5 3t-213.5 3t-106 1q10 -191 10 -481q21 0 67 -2h68q45 0 134.5 8 t133.5 8q55 0 55 -53q0 -46 -55 -62q-66 -18 -203 -18q-165 0 -203 6v-532q311 12 469 12q106 0 106 -65q0 -56 -85 -56h-63q-41 1 -62 1q-97 0 -153 -1q-226 -7 -200 -7q-96 0 -121 31q-19 25 -19 124q0 26 1.5 75.5t1.5 71.5q-114 -309 -355 -309q-64 0 -105 15 q-308 113 -308 574zM294 604q0 -189 52 -312q76 -169 239 -169q151 0 229 212q58 157 58 339q0 181 -72 347q-90 208 -247 208q-121 0 -200 -260q-59 -199 -59 -365z" />
<glyph unicode="&#x153;" horiz-adv-x="1580" d="M166 381q0 170 81 298q96 149 258 149q193 0 278 -191q122 189 304 189q113 0 209.5 -110t96.5 -224q0 -41 -60 -60q-82 -26 -261 -26q-162 0 -231 5v-8q0 -108 77 -186.5t185 -78.5q69 0 163 54.5t106 54.5q26 0 44.5 -18.5t18.5 -44.5q0 -20 -17 -42q-46 -58 -143 -99 q-91 -38 -171 -38q-210 0 -329 184q-91 -189 -287 -189q-152 0 -242 118q-80 106 -80 263zM287 393q0 -268 211 -268q104 0 159 111q44 88 44 203q0 85 -51 174q-59 92 -147 92q-216 0 -216 -312zM869 521q124 3 382 23q-55 152 -167 152q-63 0 -128 -59q-55 -50 -87 -116z " />
<glyph unicode="&#x178;" horiz-adv-x="997" d="M31 1292q31 70 65 70q21 0 73 -84q33 -53 309 -476q96 116 270 357q32 61 111 177q24 29 48 29q25 0 45 -18t20 -43q0 -53 -190 -318q-121 -163 -244 -327q9 -248 9 -466q0 -89 -9 -164q-37 -29 -73 -29q-43 0 -43 142q0 34 1.5 101.5t1.5 101.5v307q-204 278 -394 640z M271 1591q0 34 35 73t70 39q64 0 64 -92q0 -84 -104 -84q-25 0 -45 19t-20 45zM606 1615q0 92 84 92q27 0 51 -20.5t24 -48.5q0 -39 -26.5 -69.5t-66.5 -30.5q-25 0 -45.5 25.5t-20.5 51.5z" />
<glyph unicode="&#x2c6;" horiz-adv-x="800" d="M102 1546q0 45 93 142q87 94 134 114q33 14 58 14q64 0 156 -82q68 -60 124 -137q19 -25 19 -44q0 -26 -19.5 -46t-45.5 -20q-39 0 -116 87q-90 99 -123 112l2 4q-22 -6 -99 -82q-48 -50 -97 -101q-86 0 -86 39z" />
<glyph unicode="&#x2dc;" horiz-adv-x="949" d="M147 1594q0 14 8 32q29 69 89.5 114t132.5 45q79 0 140.5 -50.5t74.5 -50.5q43 0 87.5 54t74.5 54q62 0 62 -60q0 -65 -81 -123t-150 -58q-61 0 -116.5 55.5t-91.5 55.5q-49 0 -92.5 -64t-74.5 -64q-24 0 -43.5 18t-19.5 42z" />
<glyph unicode="&#x2000;" horiz-adv-x="911" />
<glyph unicode="&#x2001;" horiz-adv-x="1823" />
<glyph unicode="&#x2002;" horiz-adv-x="911" />
<glyph unicode="&#x2003;" horiz-adv-x="1823" />
<glyph unicode="&#x2004;" horiz-adv-x="607" />
<glyph unicode="&#x2005;" horiz-adv-x="455" />
<glyph unicode="&#x2006;" horiz-adv-x="303" />
<glyph unicode="&#x2007;" horiz-adv-x="303" />
<glyph unicode="&#x2008;" horiz-adv-x="227" />
<glyph unicode="&#x2009;" horiz-adv-x="364" />
<glyph unicode="&#x200a;" horiz-adv-x="101" />
<glyph unicode="&#x2010;" d="M150 666q0 34 37.5 46.5t215.5 12.5q32 0 94.5 6t94.5 6q63 0 63 -61q0 -72 -184 -72q-44 0 -133 3.5t-133 3.5q-55 0 -55 55z" />
<glyph unicode="&#x2011;" d="M150 666q0 34 37.5 46.5t215.5 12.5q32 0 94.5 6t94.5 6q63 0 63 -61q0 -72 -184 -72q-44 0 -133 3.5t-133 3.5q-55 0 -55 55z" />
<glyph unicode="&#x2012;" d="M150 666q0 34 37.5 46.5t215.5 12.5q32 0 94.5 6t94.5 6q63 0 63 -61q0 -72 -184 -72q-44 0 -133 3.5t-133 3.5q-55 0 -55 55z" />
<glyph unicode="&#x2013;" horiz-adv-x="741" d="M155 666q0 46 72 56q19 3 109 3q33 0 95 6t95 6q63 0 63 -61q0 -65 -367 -65q-67 0 -67 55z" />
<glyph unicode="&#x2014;" horiz-adv-x="1152" d="M159 666q0 34 39 47q34 12 517 12q33 0 95 6t95 6q63 0 63 -61q0 -46 -84 -56q-22 -4 -118 -4q-94 0 -277.5 -2.5t-275.5 -2.5q-54 0 -54 55z" />
<glyph unicode="&#x2018;" horiz-adv-x="369" d="M89 1328q48 37 77 37q17 0 25 -22q72 -181 72 -210q0 -51 -63 -51q-26 0 -41 26q-57 97 -70 220z" />
<glyph unicode="&#x2019;" horiz-adv-x="370" d="M96 1133q0 29 71 210q9 22 26 22q29 0 77 -37q-14 -123 -70 -220q-16 -26 -41 -26q-63 0 -63 51z" />
<glyph unicode="&#x201a;" horiz-adv-x="367" d="M94 -41q0 29 72 210q8 22 25 22q29 0 77 -37q-14 -123 -70 -221q-15 -25 -41 -25q-63 0 -63 51z" />
<glyph unicode="&#x201c;" horiz-adv-x="597" d="M131 1312q48 53 79 53q15 0 23.5 -22t38.5 -121t30 -108q0 -47 -53 -47q-36 0 -53 36q-39 78 -65 209zM300 1304q0 22 26 37.5t55 15.5q20 0 23 -51q0 -33 20.5 -92t20.5 -89q0 -50 -54 -50q-34 0 -50 38q-41 106 -41 191z" />
<glyph unicode="&#x201d;" horiz-adv-x="592" d="M142 1125q0 30 21 89t21 92q0 5 -1 12v13q0 26 24 26q30 0 81 -31v-20q0 -84 -42 -193q-16 -38 -48 -38q-56 0 -56 50zM285 1114q0 24 70 227q9 24 22 24q31 0 79 -53q-26 -131 -65 -209q-17 -36 -53 -36q-53 0 -53 47z" />
<glyph unicode="&#x201e;" horiz-adv-x="592" d="M145 -65q0 31 21.5 90t21.5 91q0 5 -2 12v14q0 25 24 25q31 0 82 -30v-21q0 -84 -43 -193q-15 -37 -48 -37q-56 0 -56 49zM288 -75q0 24 70 227q9 24 23 24q30 0 78 -53q-26 -128 -65 -208q-19 -38 -53 -38q-53 0 -53 48z" />
<glyph unicode="&#x2022;" horiz-adv-x="705" d="M147 579q0 312 218 312q94 0 149 -97q47 -82 47 -183q0 -111 -46 -195q-56 -104 -157 -104q-211 0 -211 267z" />
<glyph unicode="&#x2026;" horiz-adv-x="1068" d="M172 72q0 39 36 78t75 39q36 0 59 -33t23 -71q0 -36 -26.5 -60.5t-62.5 -24.5q-104 0 -104 72zM433 77q0 39 36 78.5t75 39.5q36 0 58.5 -33.5t22.5 -71.5q0 -35 -26 -60t-61 -25q-105 0 -105 72zM698 79q0 39 36 78t75 39q36 0 58 -33t22 -71q0 -36 -25.5 -60.5 t-61.5 -24.5q-104 0 -104 72z" />
<glyph unicode="&#x202f;" horiz-adv-x="364" />
<glyph unicode="&#x2039;" horiz-adv-x="695" d="M31 749q0 19 18 48q36 53 180 203q157 161 187 161q23 0 39 -17.5t16 -39.5q0 -27 -68 -102l-96 -96q-53 -56 -114 -131q34 -21 145 -103q70 -46 196 -150q21 -20 21 -41q0 -25 -20.5 -45.5t-46.5 -20.5q-27 0 -114 65q-58 44 -115 88q-68 41 -198 128q-30 24 -30 53z " />
<glyph unicode="&#x203a;" horiz-adv-x="689" d="M131 1094q0 26 21.5 46.5t48.5 20.5q28 0 113 -65q56 -43 113 -87q66 -41 198 -128q30 -23 30 -52q0 -22 -17 -51q-29 -48 -179 -201q-159 -162 -189 -162q-23 0 -38 18.5t-15 40.5q0 28 68 103q46 48 94 95q72 76 118 132q-55 32 -145 99q-70 46 -198 152q-23 22 -23 39 z" />
<glyph unicode="&#x205f;" horiz-adv-x="455" />
<glyph unicode="&#x20ac;" horiz-adv-x="1401" d="M152 526q0 54 65 71q34 9 177 19q2 56 10 108q-64 -2 -148 -2q-58 0 -58 66q0 41 46 60q27 10 193 22q58 203 169 333q136 162 322 162q89 0 178 -71q95 -75 95 -161q0 -66 -63 -66q-30 0 -58 44q-46 73 -54 82q-40 44 -101 44q-232 0 -350 -358q198 10 275 10 q55 0 55 -65q0 -39 -47 -61t-320 -22q-12 -79 -16 -116q145 6 258 6q99 0 99 -73q0 -37 -46 -55q-51 -18 -306 -18q21 -171 106 -263q92 -101 244 -101q207 0 265 174q29 10 59 10q43 0 43 -37q0 -21 -24 -72q-90 -196 -344 -196q-205 0 -333 131q-116 123 -144 333 q-47 -1 -136 -1q-58 0 -75 5q-36 12 -36 58z" />
<glyph unicode="&#x2122;" horiz-adv-x="1780" d="M181 1302q0 63 65 63q68 0 206.5 -4t206.5 -4q128 0 176 -12q61 -16 61 -67q0 -61 -94 -61h-213q5 -77 5 -142q0 -39 -2 -116v-116q0 -90 -60 -90q-75 0 -75 138q0 34 3 100.5t3 100.5q0 51 -6 132h-136q-140 0 -140 78zM905 790q0 29 5 85.5t5 85.5q0 46 -2 138t-2 138 q0 128 70 128q50 0 118 -141q46 -103 152 -301q36 106 72 214q51 134 100 194q26 31 57 31q85 0 107 -152q7 -44 7 -215q0 -67 2 -104q5 -113 5 -92q0 -57 -60 -57q-68 0 -68 154q0 27 1.5 82.5t1.5 83.5q0 42 -1 81q-12 -29 -65 -194q-40 -121 -84 -183q-20 -29 -49 -29 q-40 0 -70.5 19t-160.5 304q0 -19 2 -58v-58q0 -97 -14 -154q-15 -65 -65 -65q-64 0 -64 65z" />
<glyph unicode="&#x25fc;" horiz-adv-x="825" d="M0 0v825h825v-825h-825z" />
</font>
</defs>
</svg>
