<?xml version="1.0" encoding="iso-8859-1"?>
<!-- Generator: Adobe Illustrator 16.0.0, SVG Export Plug-In . SVG Version: 6.00 Build 0)  -->
<!DOCTYPE svg PUBLIC "-//W3C//DTD SVG 1.1//EN" "http://www.w3.org/Graphics/SVG/1.1/DTD/svg11.dtd">
<svg version="1.1" xmlns="http://www.w3.org/2000/svg" xmlns:xlink="http://www.w3.org/1999/xlink" x="0px" y="0px" width="512px"
	 height="512px" viewBox="0 0 512 512" style="enable-background:new 0 0 512 512;" xml:space="preserve">
<g id="Guides_For_Artboard">
</g>
<g id="Artwork">
</g>
<g id="Layer_3">
	<g>
		<circle style="fill:#735542;" cx="255.809" cy="255.699" r="245"/>
		<g>
			<path style="fill:#FFFFFF;" d="M276.299,151.412c-16.231,11.044-38.343,6.84-49.388-9.391c-1.875-2.755-3.3-5.682-4.312-8.693
				c-0.467-0.017-0.936-0.028-1.407-0.028c-15.579,0-28.974,9.223-34.95,22.45c-17.586,5.5-30.338,21.78-30.338,41.014
				c0,4.502,0.702,8.841,1.997,12.92c1.054-0.729,2.331-1.157,3.709-1.157h179.377c1.378,0,2.654,0.429,3.708,1.157
				c1.295-4.079,1.997-8.418,1.997-12.92c0-16.867-9.811-31.458-24.085-38.503c-4.979-13.57-17.562-23.523-32.648-24.814
				C287.568,140.514,282.943,146.891,276.299,151.412z"/>
			<path style="fill:#EAEBEC;" d="M241.313,388.788v34.143h-34.364c-5.597,0-10.134,3.879-10.134,8.665
				c0,4.785,4.537,8.665,10.134,8.665h88.703c5.596,0,10.133-3.879,10.133-8.665c0-4.786-4.537-8.665-10.133-8.665h-34.365v-34.143
				c-2.861,1.903-6.293,3.016-9.987,3.016S244.174,390.69,241.313,388.788z"/>
			<path style="fill:#C0C2C5;" d="M252.939,378.737c-0.545,0-1.092-0.015-1.639-0.037c-0.547,0.022-1.093,0.037-1.639,0.037
				c-5.45,0-10.893-0.917-16.259-2.673c0.683,5.307,3.656,9.894,7.911,12.724c2.861,1.902,6.292,3.016,9.986,3.016
				s7.125-1.113,9.987-3.016c4.255-2.83,7.228-7.416,7.912-12.724C263.832,377.821,258.389,378.737,252.939,378.737z"/>
			<path style="fill:#EAEBEC;" d="M161.611,208.526c-1.378,0-2.655,0.429-3.709,1.157c-1.706,1.179-2.826,3.146-2.826,5.377
				c0,68.797,16.309,93.63,29.99,116.956c13.399,22.846,30.429,38.185,48.336,44.048c5.366,1.757,10.809,2.673,16.259,2.673
				c0.545,0,1.092-0.015,1.639-0.037c0.547,0.022,1.094,0.037,1.639,0.037c5.45,0,10.893-0.917,16.259-2.673
				c17.907-5.863,34.936-21.202,48.335-44.048c13.681-23.326,29.99-48.158,29.99-116.956c0-2.231-1.12-4.198-2.826-5.377
				c-1.054-0.729-2.331-1.157-3.708-1.157H161.611z"/>
			<path style="fill:#C5C158;" d="M356.397,75.377c-0.683-2.946-3.622-4.779-6.571-4.098c-33.371,7.734-55.41,16.603-69.766,24.302
				c2.083,1.875,3.981,4.022,5.629,6.443c0.495,0.728,0.949,1.471,1.383,2.221c13.388-6.933,34.013-15.063,65.226-22.298
				C355.245,81.265,357.08,78.323,356.397,75.377z"/>
			<path style="fill:#D46A56;" d="M280.061,95.582c-11.885-10.697-29.948-12.346-43.758-2.949
				c-13.476,9.17-18.651,25.967-13.703,40.694c1.012,3.011,2.437,5.938,4.312,8.693c11.045,16.231,33.157,20.436,49.388,9.391
				c6.644-4.521,11.27-10.898,13.662-17.966c3.19-9.423,2.397-20.072-2.888-29.2c-0.434-0.75-0.888-1.493-1.383-2.221
				C284.042,99.604,282.144,97.457,280.061,95.582z"/>
		</g>
	</g>
</g>
</svg>
