<?xml version="1.0" encoding="iso-8859-1"?>
<!-- Generator: Adobe Illustrator 16.0.0, SVG Export Plug-In . SVG Version: 6.00 Build 0)  -->
<!DOCTYPE svg PUBLIC "-//W3C//DTD SVG 1.1//EN" "http://www.w3.org/Graphics/SVG/1.1/DTD/svg11.dtd">
<svg version="1.1" xmlns="http://www.w3.org/2000/svg" xmlns:xlink="http://www.w3.org/1999/xlink" x="0px" y="0px" width="512px"
	 height="512px" viewBox="0 0 512 512" style="enable-background:new 0 0 512 512;" xml:space="preserve">
<g id="Guides_For_Artboard">
</g>
<g id="Artwork">
</g>
<g id="Layer_3">
	<g>
		<circle style="fill:#735542;" cx="256" cy="255.997" r="245"/>
		<g>
			<path style="fill:#E9E9EB;" d="M254.758,334.635c-31.555,0-60.685-6.391-84.23-17.179v88.287c0,0.995,0.424,1.943,1.165,2.607
				c0.646,0.577,1.478,0.893,2.335,0.893c0.128,0,0.257-0.007,0.386-0.021c0.011-0.001,162.879-0.035,163.141-0.004
				c0.994,0.123,1.992-0.192,2.74-0.856c0.749-0.664,1.179-1.617,1.179-2.618v-88.553c-0.91,0.146-1.821,0.285-2.742,0.396
				C315.23,328.3,286.191,334.635,254.758,334.635z"/>
			<path style="fill:#F8F8F8;" d="M341.044,169.298c-9.429-38.209-43.919-66.548-85.044-66.548
				c-41.339,0-75.97,28.638-85.184,67.154c-0.4,1.673-0.744,5.079-5.37,5.948c-31.835,7.486-55.542,36.053-55.542,70.173
				c0,34.871,24.759,63.94,57.652,70.637c0.684,0.139,2.671,0.657,2.971,0.794c23.546,10.788,52.676,17.179,84.23,17.179
				c30.409,0,58.577-5.929,81.657-16.014c0.778-0.34,4.148-1.285,5.058-1.43c34.36-5.504,60.623-35.253,60.623-71.166
				c0-34.003-23.544-62.492-55.217-70.097C344.213,175.035,342.551,174.982,341.044,169.298z"/>
		</g>
	</g>
</g>
</svg>
