<?xml version="1.0" encoding="iso-8859-1"?>
<!-- Generator: Adobe Illustrator 16.0.0, SVG Export Plug-In . SVG Version: 6.00 Build 0)  -->
<!DOCTYPE svg PUBLIC "-//W3C//DTD SVG 1.1//EN" "http://www.w3.org/Graphics/SVG/1.1/DTD/svg11.dtd">
<svg version="1.1" xmlns="http://www.w3.org/2000/svg" xmlns:xlink="http://www.w3.org/1999/xlink" x="0px" y="0px" width="512px"
	 height="512px" viewBox="0 0 512 512" style="enable-background:new 0 0 512 512;" xml:space="preserve">
<g id="Guides_For_Artboard">
</g>
<g id="Artwork">
</g>
<g id="Layer_3">
	<g>
		<circle style="fill:#735542;" cx="258.168" cy="256.887" r="245"/>
		<g>
			<path style="fill:#EAEBEC;" d="M98.63,156.109h-2.181c-0.474,0-0.856,0.445-0.856,0.992v54.563
				c0.063,0.725-0.465,1.057-1.15,1.057c-0.727,0-1.462-0.258-1.462-1.057c0-2.594-0.972-52.463-1.013-54.586
				c-0.01-0.539-0.391-0.969-0.856-0.969h-3.237c-0.469,0-0.852,0.438-0.856,0.98c-0.004,0.512-0.479,51.27-0.479,54.574
				c0,0.396-0.086,0.684-0.257,0.852c-0.159,0.158-0.416,0.244-0.721,0.244c-0.086,0-0.171-0.01-0.256-0.021
				c-0.085,0.012-0.17,0.021-0.256,0.021c-0.306,0-0.562-0.086-0.721-0.244c-0.17-0.168-0.257-0.455-0.257-0.852
				c0-3.305-0.474-54.063-0.479-54.574c-0.005-0.543-0.387-0.98-0.856-0.98h-3.237c-0.466,0-0.846,0.43-0.856,0.969
				c-0.042,2.123-1.013,51.992-1.013,54.586c0,0.799-0.449,1.139-1.176,1.139c-0.685,0-1.41-0.223-1.436-1.139v-54.563
				c0-0.547-0.383-0.992-0.856-0.992h-2.181c-0.405,0-0.755,0.328-0.838,0.787c-0.419,2.305-10.208,56.521-4.971,65.473
				c3.396,5.807,7.925,9.564,13.469,11.18l-5.069,113.633c-0.001,0.047,0,0.092,0.002,0.137c-0.002,0.035-0.003,0.07-0.003,0.107
				c0,5.645,3.978,10.238,8.867,10.238h1.869h1.869c4.89,0,8.868-4.594,8.868-10.238c0-0.037-0.001-0.072-0.004-0.107
				c0.004-0.045,0.005-0.09,0.003-0.137L90.97,233.549c5.544-1.615,10.073-5.373,13.469-11.18
				c5.237-8.951-4.552-63.168-4.971-65.473C99.385,156.438,99.035,156.109,98.63,156.109z"/>
			<path style="fill:#EAEBEC;" d="M388.795,252.643h0.007c0,0-0.348-96.289-0.348-104.574c-0.063-5.703-6.289,0.217-8.929,5.664
				c-2.641,5.436-13.537,27.209-13.537,52.404c0,9.465,0,24.688,0,30.719c0,10.805,11.406,5.852,11.406,21.277l-5.208,100.961h0.021
				c-0.006,0.055-0.021,0.111-0.021,0.166c0,4.852,3.93,8.77,8.773,8.77c0.243,0,3.095,0,3.346,0c4.839,0,8.763-3.934,8.763-8.77
				c0-0.063-0.014-0.119-0.014-0.166h0.028L388.795,252.643z"/>
			<path style="fill:#EAEBEC;" d="M451.706,193.938c0-18.664-14.488-34.76-28.492-34.898c-0.015,0-0.015,0-0.03,0h-0.014
				c-14.012,0.139-28.493,16.221-28.493,34.898c0,17.109,7.384,30.307,17.542,34.783c1.057,0.514,5.843,2.092,5.843,2.092
				l-5.901,114.482h0.015c0,0.061-0.015,0.125-0.015,0.191c0,5.109,4.139,9.248,9.262,9.248c0.257,0,3.274,0,3.523,0
				c5.123,0,9.27-4.146,9.27-9.248c0-0.074-0.015-0.131-0.022-0.191h0.022l-5.945-114.416c0,0,5.82-2.115,5.879-2.152
				C444.315,224.25,451.706,211.061,451.706,193.938z"/>
			<path style="fill:#D46A56;" d="M233.232,132.303c-68.806,0-124.583,55.777-124.583,124.584s55.777,124.584,124.583,124.584
				s124.584-55.777,124.584-124.584S302.039,132.303,233.232,132.303z M233.233,345.875c-49.146,0-88.986-39.84-88.986-88.986
				s39.84-88.988,88.986-88.988s88.987,39.842,88.987,88.988S282.379,345.875,233.233,345.875z"/>
			<circle style="fill:#FFFFFF;" cx="233.233" cy="256.888" r="88.987"/>
		</g>
	</g>
</g>
</svg>
