<?xml version="1.0" encoding="iso-8859-1"?>
<!-- Generator: Adobe Illustrator 19.0.0, SVG Export Plug-In . SVG Version: 6.00 Build 0)  -->
<svg version="1.1" id="Layer_1" xmlns="http://www.w3.org/2000/svg" xmlns:xlink="http://www.w3.org/1999/xlink" x="0px" y="0px"
	 viewBox="0 0 297 297" style="enable-background:new 0 0 297 297;" xml:space="preserve">
<g>
	<g>
		<g>
			<circle style="fill:#5E4534;" cx="148.5" cy="148.5" r="148.5"/>
		</g>
	</g>
	<path style="fill:#503B2C;" d="M247.5,148.5L79.103,219.11l77.658,77.658c63.372-3.476,116.153-46.682,133.869-105.138L247.5,148.5
		z"/>
	<g>
		<path style="fill:#2ECC71;" d="M98.963,145.988c0.374-7.481-1.444-30.546-36.907-36.928c-1.657-0.298-3.151,1.054-3.052,2.734
			c0.573,9.697,5.028,37.759,37.442,36.675C97.797,148.424,98.896,147.337,98.963,145.988z"/>
	</g>
	<g>
		<path style="fill:#2ECC71;" d="M112.175,132.406c3.009-5.45,10.069-23.336-14.082-41.043c-1.128-0.827-2.738-0.363-3.277,0.928
			c-3.111,7.45-10.025,30.03,14.574,41.049C110.415,133.799,111.633,133.388,112.175,132.406z"/>
	</g>
	<g>
		<path style="fill:#FFFFFF;" d="M214.634,134.266C209.206,122.26,197.133,113.9,183.1,113.9c-1.516,0-3.005,0.108-4.47,0.297
			C172.69,103.694,161.427,96.6,148.5,96.6s-24.191,7.094-30.13,17.597c-1.464-0.189-2.954-0.297-4.47-0.297
			c-14.033,0-26.106,8.359-31.534,20.366C70.359,139.694,62,151.767,62,165.8c0,19.109,15.491,34.6,34.6,34.6
			c14.033,0,26.106-8.359,31.534-20.366c6.717-3.037,12.288-8.153,15.896-14.531c1.464,0.189,2.954,0.297,4.47,0.297
			s3.005-0.108,4.47-0.297c3.607,6.379,9.179,11.494,15.896,14.531c5.428,12.006,17.501,20.366,31.534,20.366
			c19.109,0,34.6-15.491,34.6-34.6C235,151.767,226.641,139.694,214.634,134.266z"/>
	</g>
	<g>
		<path style="fill:#ECF0F1;" d="M214.634,134.266C209.206,122.26,197.133,113.9,183.1,113.9c-1.516,0-3.005,0.108-4.47,0.297
			C172.69,103.695,161.427,96.6,148.5,96.6v69.2c1.516,0,3.005-0.108,4.469-0.297c3.608,6.379,9.179,11.495,15.896,14.531
			c5.428,12.006,17.501,20.365,31.534,20.365c19.109,0,34.6-15.491,34.6-34.6C235,151.767,226.641,139.694,214.634,134.266z"/>
	</g>
	<g>
		<circle style="fill:#2ECC71;" cx="107.25" cy="140.25" r="3"/>
	</g>
	<g>
		<circle style="fill:#C63C22;" cx="145.5" cy="118.5" r="3"/>
	</g>
	<g>
		<circle style="fill:#2ECC71;" cx="135" cy="135" r="3"/>
	</g>
	<g>
		<circle style="fill:#2ECC71;" cx="184.5" cy="135" r="3"/>
	</g>
	<g>
		<circle style="fill:#C63C22;" cx="168" cy="135" r="3"/>
	</g>
	<g>
		<circle style="fill:#C63C22;" cx="102" cy="129" r="3"/>
	</g>
	<g>
		<path style="fill:#F4AF30;" d="M247.5,148.5c0,54.676-44.324,99-99,99s-99-44.324-99-99H247.5z"/>
	</g>
	<g>
		<path style="fill:#ED9700;" d="M247.5,148.5h-99v99C203.176,247.5,247.5,203.176,247.5,148.5z"/>
	</g>
</g>
<g>
</g>
<g>
</g>
<g>
</g>
<g>
</g>
<g>
</g>
<g>
</g>
<g>
</g>
<g>
</g>
<g>
</g>
<g>
</g>
<g>
</g>
<g>
</g>
<g>
</g>
<g>
</g>
<g>
</g>
</svg>
